<svg width="1729" height="1801" viewBox="0 0 1729 1801" fill="none" xmlns="http://www.w3.org/2000/svg">
<path d="M30 1046H243L378 1303.5L515.5 1451.5L691 1527.5L889.5 1571L1193 1482.5L1359.5 1337.5L1463 1140L1479 1046H1721L1679.5 1185.5L1629.5 1337.5L1463 1571L1193 1729.5L1013.5 1766L832.5 1776L656 1755.5L466.5 1695.5L243 1524.5L77 1275L30 1046Z" fill="white"/>
<path d="M339.5 313H1371V756.5V988L1321.5 1184.5L1126.5 1379.5L876.5 1450.5L700.5 1416L542 1339.5L374 1098.5L339.5 313Z" fill="white"/>
<path d="M1721.2 1048.4V1049.7C1720.9 1056.6 1719.2 1063.4 1718 1070.1C1714.3 1089.4 1710.3 1108.6 1705.7 1127.8C1693.5 1179.1 1677.9 1229.3 1658.4 1278.3C1647.6 1305.5 1635.5 1332.1 1622.1 1358.2C1598.6 1404 1571.2 1447.4 1539.5 1487.9C1524.1 1507.7 1507.7 1526.7 1490.3 1544.8C1463.7 1572.7 1435.1 1598.4 1404.6 1621.8C1369.5 1648.7 1332.3 1672.3 1293.1 1692.9C1255 1712.8 1215.6 1729.6 1174.9 1743.4C1150.6 1751.7 1126 1758.8 1101.1 1765C1079.3 1770.4 1057.2 1775.1 1035 1778.9C1021.2 1781.3 1007.4 1783.3 993.6 1785.1C981.1 1786.7 968.5 1787.9 956 1789.1C941.8 1790.5 927.6 1791.5 913.3 1792C909 1792.2 904.6 1792.4 899.5 1792.7C896.7 1792.8 894.6 1792.7 892.6 1792.9C891.5 1793 890.4 1793.3 889.2 1793.6C874.4 1793.6 859.7 1793.6 844.2 1793.4C840.3 1793.1 837.1 1793 834 1792.8C825.8 1792.4 817.5 1792.2 809.3 1791.6C799 1790.9 788.6 1790.1 778.3 1789.3C771 1788.7 763.6 1788 756.3 1787.2C748.4 1786.3 740.5 1785.4 732.6 1784.3C721.9 1782.7 711.2 1781 700.6 1779.3C678.4 1775.6 656.4 1770.9 634.5 1765.4C612.9 1760 591.6 1753.8 570.6 1746.8C536.4 1735.4 503.1 1721.9 470.6 1706.2C436.6 1689.7 404 1671 372.8 1649.8C339.8 1627.4 308.7 1602.6 279.6 1575.3C273.7 1569.7 267.8 1564.2 262.1 1558.4C238.8 1535.2 217 1510.5 196.7 1484.5C165.5 1444.5 138.2 1402 114.4 1357.2C89.4 1310.2 68.5 1261.4 51 1211.2C38.2 1174.3 27.1 1136.9 17.9 1099C14 1083.1 10.6 1067.1 7 1051.2V1048.7V1035.2H12.3H16.5H21.4C42.6 1035.2 63.6 1034.6 84.8 1034.6C119.1 1034.6 153.3 1034.5 187.6 1034.4C211.8 1034.3 236 1034.3 260.2 1034.3C261.5 1034.3 262.9 1034.3 264.3 1034.3H275.5V1042.8V1045.6C280.5 1074.5 287.4 1102.9 296.1 1130.9C306 1162.6 318.3 1193.4 333.1 1223.1C356.6 1270.2 385.9 1313.2 421.3 1352.1C451.9 1385.7 486.1 1415.1 523.8 1440.5C546.8 1455.9 570.7 1469.7 595.6 1481.7C620.2 1493.6 645.5 1503.8 671.5 1512.3C694.1 1519.6 717 1525.7 740.2 1530.5C753.3 1533.2 766.5 1535.5 779.7 1537.3C791.9 1539 804.1 1540.4 816.4 1541.3C830.6 1542.4 844.9 1543.2 859.1 1543.3C863.3 1543.3 867.5 1543.7 871.7 1543.6C887.5 1543.1 903.2 1542.9 918.9 1541.5C931.5 1540.4 944 1539.2 956.5 1537.5C978.7 1534.4 1000.6 1530.2 1022.4 1524.8C1060.9 1515.2 1098.2 1502.1 1134.2 1485.2C1187.8 1460 1236.4 1427.6 1279.8 1387.3C1326.8 1343.7 1365.1 1293.3 1394.9 1236.5C1409.3 1209.1 1421.4 1180.7 1431.4 1151.4C1441.7 1121.2 1449.8 1090.5 1455.7 1059.2C1456.6 1054.5 1457.4 1049.7 1458.3 1045L1458.5 1044.2V1043.4V1034.3L1468.8 1034.4H1469.7H1472.3C1551.7 1034.5 1631.1 1034.7 1710.4 1034.8H1715.1H1720.9V1047.1V1048.4H1721.2ZM280.8 1150.6C270.6 1120.2 262.6 1089.3 256.7 1057.8C256.5 1056.8 256.1 1055.9 255.8 1054.9C254 1054.9 252.5 1054.9 251 1054.9C194 1055 137 1055.1 80.1 1055.2C64.6 1055.2 49.1 1055.3 33.6 1055.4C32.3 1055.4 30.9 1055 29.6 1056.1C29.7 1057 29.8 1058.1 30 1059.1C38 1095.5 47.3 1131.5 58.4 1167C74.5 1218.8 94.1 1269.3 117.9 1318.1C147.4 1378.6 182.9 1435.2 225.6 1487.2C290.4 1566 367.9 1629.2 458.3 1676.6C507.3 1702.3 558.4 1722.4 611.5 1737.6C638.4 1745.3 665.5 1751.8 693 1756.7C704.2 1758.7 715.5 1760.6 726.8 1762.3C737 1763.9 747.3 1765.2 757.6 1766.4C768.5 1767.6 779.4 1768.5 790.4 1769.5C805.7 1770.8 821 1771.6 836.3 1771.9C863.1 1772.4 889.8 1772.7 916.6 1771.1C931 1770.3 945.4 1769.3 959.8 1768C971.6 1766.9 983.4 1765.5 995.2 1763.8C1009.6 1761.8 1024 1759.7 1038.4 1757.1C1063.7 1752.6 1088.7 1747 1113.5 1740.3C1168.2 1725.6 1220.9 1706 1271.6 1680.6C1340.5 1646 1402.8 1602.2 1457.9 1548.3C1508.8 1498.5 1551.4 1442.2 1586.6 1380.3C1617.7 1325.7 1642.2 1268.2 1661.6 1208.5C1677.6 1159.3 1689.8 1109.2 1699.1 1058.3C1699.3 1057.5 1699.2 1056.6 1699.3 1056C1698.9 1055.6 1698.8 1055.5 1698.7 1055.4C1698.1 1055.3 1697.5 1055.2 1696.9 1055.2C1624.3 1055.1 1551.7 1054.9 1479.1 1054.8C1479 1054.8 1478.8 1054.8 1478.7 1054.9C1478.6 1055 1478.5 1055.1 1478.2 1055.3C1478.1 1055.6 1477.9 1056 1477.8 1056.4C1475 1072.2 1471.6 1087.9 1467.6 1103.5C1454.5 1155.7 1435.5 1205.7 1409.8 1253.1C1377.1 1313.4 1335.2 1366.4 1283.7 1411.8C1226.6 1462.2 1161.9 1499.7 1090.3 1525.6C1041.8 1543.1 991.9 1554.5 940.6 1560.1C927.1 1561.6 913.7 1562.7 900.2 1563.3C876.6 1564.4 853 1564.2 829.4 1562.8C812.4 1561.8 795.5 1560.2 778.7 1557.9C760.8 1555.5 743.1 1552.2 725.5 1548.3C680.2 1538.2 636.4 1523.6 594.5 1503.9C487.9 1453.8 402.9 1379.3 340.8 1279C315.8 1238.8 296.1 1196.1 280.8 1150.6Z" fill="#1D1D1B"/>
<path d="M539.8 1015.2C497 966.3 454.4 917.7 411.7 869.1C411.4 868.8 411.3 868.3 411 867.8C411.4 867.2 411.9 866.6 412.3 866.1C415.5 862.5 418.8 859 422.1 855.5C427.8 849.3 433.6 843.2 439.3 837C450.4 825 461.5 812.9 472.6 800.8C479.5 793.3 486.5 785.8 493.4 778.2C504.5 766.1 515.6 754.1 526.7 742C533.6 734.5 540.6 726.9 547.5 719.4C558.6 707.3 569.7 695.3 580.8 683.2C587.7 675.7 594.7 668.2 601.6 660.6C612.7 648.5 623.8 636.5 634.9 624.4C641.8 616.9 648.8 609.4 655.7 601.8C666.8 589.7 677.9 577.7 689 565.6C695.9 558.1 702.9 550.6 709.8 543C720.9 530.9 732 518.9 743.1 506.8C750.3 498.9 757.6 491.1 764.8 483.2C775.9 471.1 787 459.1 798.1 447C805 439.5 812 432 818.9 424.4C829.7 412.7 840.5 400.9 851.3 389.2C854.8 385.4 858.2 381.7 861.7 377.9C862.4 377.1 863.2 376.4 864.1 375.5C864.9 376 865.7 376.4 866.3 377C872.4 383.6 878.6 390.2 884.7 396.9C885.3 397.6 885.9 398.2 886.5 398.9C896.3 409.5 906.2 420 916 430.6C923.5 438.7 930.9 446.7 938.3 454.8C946 463.1 953.6 471.4 961.3 479.7C968.5 487.5 975.8 495.4 983 503.2C994.4 515.6 1005.9 527.9 1017.3 540.3C1024.1 547.7 1031 555.1 1037.8 562.5C1049.3 575 1060.9 587.5 1072.4 599.9C1079.4 607.5 1086.5 615.2 1093.5 622.8C1105.1 635.4 1116.8 648 1128.4 660.6C1135.2 668 1142.1 675.4 1148.9 682.8C1157.7 692.3 1166.4 701.9 1175.1 711.4C1179.1 715.7 1183 720 1187 724.3C1196.7 734.8 1206.5 745.2 1216.2 755.7C1223.8 763.9 1231.3 772 1238.9 780.2C1246.4 788.3 1253.8 796.3 1261.2 804.4C1272.4 816.6 1283.7 828.7 1294.9 840.9C1300.7 847.2 1306.5 853.5 1312.3 859.9C1312.8 860.4 1313.2 861 1313.8 861.8C1312.5 863.4 1311.4 865 1310.2 866.4C1303.4 874.2 1296.6 882 1289.8 889.9C1282.8 898 1275.9 906.1 1268.9 914.2C1262.1 922 1255.3 929.8 1248.5 937.7C1241.8 945.4 1235.2 953.2 1228.5 960.9C1223.8 966.4 1219 971.8 1214.3 977.2C1207 985.6 1199.7 994 1192.5 1002.5C1188.1 1007.6 1183.6 1012.7 1179.2 1017.8C1171.8 1026.3 1164.5 1034.9 1157.1 1043.4C1150.3 1051.2 1143.5 1059.1 1136.7 1066.9C1129.7 1075 1122.8 1083.1 1115.8 1091.1C1109.1 1098.8 1102.4 1106.5 1095.7 1114.3C1088.6 1122.5 1081.5 1130.7 1074.5 1138.9C1070 1144.1 1065.4 1149.3 1060.9 1154.6C1053.6 1163 1046.4 1171.4 1039.1 1179.9C1032.5 1187.5 1025.9 1195.1 1019.3 1202.7C1012.1 1211 1005 1219.3 997.8 1227.6C991.2 1235.2 984.6 1242.8 978 1250.4C970.8 1258.7 963.6 1267 956.5 1275.3C952 1280.5 947.4 1285.8 942.9 1291C935.6 1299.4 928.4 1307.8 921.1 1316.3C914.4 1324 907.7 1331.7 901 1339.4C893.9 1347.6 886.9 1355.8 879.8 1364C875.4 1369.1 870.9 1374.2 866.5 1379.3C865.6 1380.3 864.7 1381.3 863.5 1382.4C862.6 1381.7 861.7 1381.1 861.1 1380.4C855.9 1374.6 850.7 1368.7 845.6 1362.8C842.7 1359.5 839.9 1356.2 837 1352.9C828.6 1343.3 820.2 1333.7 811.7 1324.1C806.1 1317.8 800.5 1311.5 795 1305.2C787.4 1296.5 779.8 1287.7 772.2 1279C767.2 1273.3 762.3 1267.7 757.3 1262.1C749.1 1252.7 740.9 1243.3 732.6 1233.9C727.4 1228 722.2 1222.2 717.1 1216.3C709.4 1207.5 701.7 1198.6 693.9 1189.8C688.5 1183.7 683.1 1177.6 677.8 1171.5C670 1162.6 662.2 1153.6 654.3 1144.7C649.4 1139.1 644.6 1133.6 639.7 1128.1C631.6 1118.8 623.5 1109.5 615.3 1100.3C610 1094.3 604.7 1088.4 599.5 1082.4C591.6 1073.3 583.7 1064.3 575.7 1055.2C571.4 1050.3 567.2 1045.5 562.9 1040.6C555.1 1032.6 547.5 1024 539.8 1015.2ZM482.7 902C499.2 920.8 515.6 939.5 532.1 958.3C579.3 1012.1 626.6 1066 673.8 1119.8C712 1163.3 750.2 1206.9 788.4 1250.4C812.5 1277.9 836.6 1305.4 860.8 1332.8C861.5 1333.6 862.3 1334.2 863.1 1334.9C863.8 1334.2 864.3 1333.7 864.8 1333.1C1000 1176.9 1135.2 1020.7 1270.4 864.6C1270.5 864.5 1270.5 864.3 1270.6 864.2C1270.6 864.1 1270.6 863.9 1270.7 863.6C1269.9 862.7 1269 861.7 1268.1 860.7C1133.8 715.2 999.4 569.8 865.1 424.3C865 424.2 864.8 424.2 864.7 424.1C864.6 424.1 864.4 424 864.3 424C860.5 427.5 456.2 866.3 454.1 869.3C463.5 880.1 472.9 890.8 482.7 902Z" fill="#FF4840"/>
<path d="M662.5 842L687 844L724.5 863L735.5 859L772 872.5L798 883L828.5 893.5L848.5 867L851 857.5L843.5 850.5L846.5 837L862.5 835L879.5 840L876.5 862L887 882.5L905.5 893.5L946.5 875.5L991.5 862L1014 857.5L1039.5 844.5L1063 840L1048.5 862L1012.5 879L989 900.5L971.5 927.5V938L977 949.5L971.5 964.5L1004 968.5L1054 991L1075.5 999.5L1069 1044L1022 1027.5L978 1038.5H934L859.5 1019L784.5 1038.5H751L696.5 1027.5L658 1044L653 999.5L724.5 968.5H751L753.5 960L747.5 946L755 938L747.5 918.5L718 883L678.5 863L662.5 842Z" fill="#FF4840"/>
<path d="M741.5 994.5L784.5 991L796.5 973L826 994.5L848 1009L827.5 1020L789 1027.5L744 1026L716.5 1015.5L741.5 994.5Z" fill="white"/>
<path d="M762 983L764 970.5L784.5 968.5L786.5 980.5L789 983L784.5 987L778 989H764L762 983Z" fill="white"/>
<path d="M984.6 995.699L941.7 991.399L930 973.199L900.1 994.199L877.8 1008.3L898.1 1019.7L936.5 1027.9L981.5 1027.2L1009.2 1017.2L984.6 995.699Z" fill="white"/>
<path d="M964.3 983.9L962.5 971.4L942 969L938.5 974L939.8 980.9L937.3 983.4L941.7 987.5L948.2 989.6L962.2 989.8L964.3 983.9Z" fill="white"/>
<path d="M737.5 892L796 910L818 921L777.5 939L737.5 892Z" fill="white"/>
<path d="M987.5 892L929 910L907 921L947.5 939L987.5 892Z" fill="white"/>
<path d="M656.8 1053.9C655.2 1055 654.1 1056.3 652.2 1057C652.1 1055.9 651.9 1055.1 651.9 1054.3C651.5 1047.7 651.1 1041.2 650.7 1034.6C650 1024.5 647.4 1014.8 644.2 1005.2C643.5 1003.1 642.8 1001 642 998.9C643 997.6 644.6 997.6 645.8 997.1C654.5 994.1 663.3 991.2 672 988.3C686.4 983.4 699.8 976.4 712.8 968.7C716.6 966.4 720.5 964.1 724.5 961.7C725.7 962.2 727 962.8 728.3 963.3C732.5 964.9 736.7 966.4 741.3 966C745.2 965.7 748.6 964.5 751.7 961.5C750.9 960.9 750.2 960.5 749.6 960.1C744.5 956.8 742.6 951.9 743 946C743.2 942.9 745.1 940.6 747.4 938.6C748.8 937.4 750.3 936.4 751.9 935.2C751.2 934.1 750.5 933 749.7 932C737.7 916 725.7 900 713.8 883.9C712.5 882.2 711 880.9 709.1 879.9C703.8 877.1 698.5 874.2 693.2 871.4C691.7 870.6 690.2 870 688.4 870.1C687.2 870.2 685.9 870 684.6 869.8C677.3 869 672 865.3 668.8 858.8C667.1 855.3 664.7 853 661.4 851.2C659.6 850.2 657.9 849 656.2 847.9C657.1 845 661.2 838.1 663.9 834.7C665.5 834.7 667 835.7 668.5 836.3C670.1 836.9 671.6 837.6 673.2 838.2C674.3 837.5 675.3 836.8 676.4 836.1C679.3 834.4 682.3 834.4 685.2 836C688 837.5 690.1 839.7 691.6 842.5C692.2 843.7 692.8 845 693.4 846.4C703.6 850.5 713.8 854.7 724.2 858.8C725.1 858 726 857.2 726.8 856.5C730.7 852.8 738.1 852.9 741.3 857.6C742.3 859.1 743.8 859.7 745.4 860.3C767 868.9 788.5 877.5 810.1 886.1C814.1 887.7 818.2 889.3 822.2 890.9C824.5 889.5 825.6 887.1 827.4 885.4C829.2 883.8 831 882.2 832.9 880.8C834.9 879.3 837.1 878.1 839.4 876.6C839.4 875.6 839.5 874.7 839.5 873.7C839.6 867.2 842.1 862.1 848 858.9C847.7 857.9 846.9 858.3 846.3 858.3C845.5 858.2 844.6 858.3 843.8 858.2C843.1 858.2 842.4 858.1 841.9 858.1C841.6 857.7 841.3 857.5 841.3 857.3C840 852.3 840 847.3 841.4 842.4C843 837 846.6 833.6 852.1 832.3C852.8 832.1 853.5 832 854.2 831.9C856.7 831.5 870.1 831.7 872.6 832.2C878.2 833.3 881.9 836.5 883.7 841.9C884.7 845 885.1 848.2 884.9 851.4C884.7 853.5 884.4 855.5 884.1 857.6C881.9 858.8 879.5 857.8 877.3 858.5C877.6 859.6 878.7 859.7 879.4 860.3C880.1 861 880.9 861.5 881.6 862.3C882.3 863 882.8 863.8 883.3 864.7C883.8 865.7 884.3 866.7 884.7 867.8C885 868.7 885.2 869.7 885.4 870.7C885.6 871.7 885.7 872.6 885.8 873.6C885.9 874.6 885.8 875.5 885.8 876.5C888.9 878.6 892.1 880.5 894.9 882.8C897.7 885.1 900 888 902.8 890.8C903.4 890.6 904.3 890.4 905.2 890.1C930 880.2 954.8 870.3 979.6 860.4C981.4 859.7 983.1 858.8 984.3 857.2C987.4 853.1 994.3 853.1 997.9 856.2C998.9 857 999.7 857.9 1000.8 858.9C1011.1 854.9 1021.3 850.6 1031.7 846.5C1032.3 845.3 1032.8 844 1033.5 842.8C1035 840 1037 837.8 1039.8 836.2C1042.9 834.5 1045.9 834.5 1049 836.3C1049.9 836.9 1050.9 837.5 1051.9 838.2C1055 837 1058.1 835.7 1061.3 834.4C1064.2 838.6 1066.6 842.8 1069.2 847.2C1068.6 847.8 1068.1 848.4 1067.5 848.9C1066.6 849.6 1065.7 850.2 1064.7 850.7C1060.9 852.7 1058.1 855.4 1056.1 859.4C1052.6 866.6 1046.2 869.9 1038.4 870.1C1035.5 870.2 1033 871 1030.5 872.3C1025.6 875 1020.7 877.6 1015.7 880.2C1014.3 880.9 1013.2 881.8 1012.2 883.1C999.5 900.2 986.7 917.2 974 934.2C973.8 934.4 973.8 934.7 973.6 935.2C974.2 935.6 974.8 936.1 975.4 936.6C976.7 937.6 978.1 938.6 979.3 939.8C982 942.6 983 945.8 982.3 949.8C981.3 955 978.8 958.8 973.6 961.2C974.3 961.9 974.7 962.5 975.3 962.9C979.6 965.8 984.3 966.6 989.3 965.5C992 964.9 994.7 963.9 997.3 963C998.5 962.6 999.6 962.1 1000.9 961.6C1004 963.5 1007.1 965.4 1010.3 967.2C1014.9 969.9 1019.5 972.5 1024.2 975.1C1037.5 982.7 1051.9 987.8 1066.3 992.7C1070.7 994.2 1075.1 995.5 1079.5 997C1080.7 997.4 1081.9 997.8 1083 998.2C1083.5 999.7 1082.8 1000.8 1082.4 1002C1079.9 1009.3 1077.6 1016.6 1076.2 1024.2C1074.6 1033 1073.9 1041.9 1073.7 1050.9C1073.7 1052.8 1073.7 1054.8 1073.7 1056.6C1072.5 1057.2 1071.9 1056.4 1071.3 1055.9C1066.6 1052.4 1061.9 1048.8 1057.2 1045.3C1048 1038.5 1037.8 1033.7 1027.3 1029.2C1025.5 1028.4 1023.8 1028.6 1022.1 1029.3C1011.3 1033.1 1000.2 1036.2 989 1038.5C974.4 1041.5 959.7 1043.1 944.7 1042.2C934.9 1041.7 925.2 1040 915.7 1037.7C898.6 1033.7 882.1 1028.2 866 1021.3C863.7 1020.3 861.9 1020.4 859.6 1021.3C843.6 1028.1 827.2 1033.6 810.3 1037.6C795.8 1041 781.1 1043 766.2 1042.3C755.3 1041.8 744.5 1040.2 733.8 1037.9C723.8 1035.7 713.9 1033.1 704.4 1029.5C701.6 1028.5 699.4 1028.8 696.8 1029.8C682.1 1035.9 669.1 1044 656.8 1053.9ZM982.2 908.1C982.2 907.9 982.2 907.8 982.2 907.6C982.1 907.8 982 908 981.6 908.2C981.6 908.3 981.6 908.5 981.7 908.6C981.7 908.5 981.8 908.3 982.2 908.1ZM743.7 908.5C743.4 908.4 743.2 908.3 742.9 907.6C742.6 907.2 742.3 906.8 741.9 906.2C741.8 906.2 741.7 906.1 741.6 906.1C741.7 906.2 741.9 906.3 742 907C742.3 907.4 742.6 907.8 743 908.6C743.2 908.7 743.5 908.9 743.8 909.5C744.1 909.6 744.3 909.8 744.6 910.4C744.9 910.5 745.1 910.7 745.3 911.3C745.6 911.7 745.9 912.1 746.3 913.1C751.3 919.7 756.3 926.2 761.2 932.8C762 933.9 762.8 935.1 763.8 936.1C764.8 937.1 765.9 937.1 767.1 936.5C767 936 767 935.7 766.9 935.5C760.7 928.1 754.5 920.8 748.2 913.4C747.8 912.9 747.1 912.7 746.4 911.8C746.1 911.5 745.8 911.1 745.3 910.3C745.1 910.2 744.8 910 744.5 909.5C744.3 909.2 744.1 909.1 743.7 908.5ZM979.6 910.6C979.2 911.1 978.8 911.7 978 912.4C978 912.6 978.1 912.8 978.1 913C978.3 912.8 978.5 912.6 979.1 912.3C979.4 911.7 979.8 911.2 980.5 910.5C980.5 910.3 980.4 910.1 980.4 910C980.4 910.2 980.3 910.4 979.6 910.6ZM741.3 893.1C741.1 893.1 740.9 893.2 740.6 893.2C740.7 893.5 740.9 893.7 741.2 894.5C752.9 908.1 764.5 921.7 776.2 935.3C776.6 935.8 777.2 936.1 777.7 936.5C778.9 935.6 779.9 934.8 780.9 934.1C786.1 930.4 791.6 927.4 798.2 927.3C799 927.3 799.8 927 800.6 926.6C803.9 925.2 807.3 923.7 810.6 922.2C811.1 922 811.4 921.6 812.1 921.1C810.7 920.5 809.6 920 808.4 919.5C791.5 912.8 774.6 906.1 757.7 899.5C752.4 897.5 747.1 895.4 741.3 893.1ZM809 930.8C805.6 932.1 802 932.8 799 934.8C798.5 937.6 797.6 940.1 795.9 942.2C790.1 949.2 783 954.1 773.7 955.3C771.5 955.6 769.3 955.8 766.8 956.1C765.4 957.9 764 960 762.4 961.9C756.2 969.1 748.6 973.2 738.9 972.6C735.9 972.4 732.8 971.7 729.8 971C724.8 969.9 724.8 969.8 720.4 972.4C720.2 972.5 719.9 972.7 719.7 972.8C711.5 977.4 703.3 981.9 694.7 985.6C682 991.1 669 996 656.1 1000.9C655.1 1001.3 654.1 1001.8 653 1002.3C653.2 1003.5 653.4 1004.4 653.6 1005.3C654.2 1007.6 655 1009.8 655.6 1012.1C657.5 1019.8 658.6 1027.7 659.1 1035.7C659.2 1037.3 659.1 1039 660.3 1040.5C662 1040 663.2 1038.9 664.6 1037.9C676.9 1029.5 689.8 1022.3 704.3 1018.3C706 1017.8 707.3 1016.9 708.5 1015.8C714.5 1010.1 720.4 1004.4 726.5 998.8C728.9 996.6 731.5 994.7 734.1 992.8C735.6 991.8 737.2 990.8 738.9 990.4C744.1 989.1 749.3 988.2 754.7 988.9C755.2 989 755.7 988.8 756.4 988.8C755.9 987.8 755.4 987.1 755.1 986.3C754.6 984.6 753.8 982.9 754.4 981C756.3 974.3 760.1 969.2 766.7 966.6C769.3 965.6 772.1 965.2 774.9 965.1C778.8 965 782.7 965.1 786.7 965.1C787.7 965.1 788.6 965 789.6 964.9C789.8 964.2 790.1 963.7 790.2 963.2C790.9 960.4 792.8 958.6 795.3 957.4C797.7 956.2 800 954.9 802.5 954.1C808.6 952 814.8 950.2 820.9 948.2C821.8 947.9 822.7 947.6 823.7 947.2C823.6 943.6 822.5 940.5 821.6 937.3C820.7 934 820.6 930.4 818.8 927.2C815.6 928.2 812.6 929.4 809 930.8ZM981.4 989.5C987.1 989.9 991.7 992.7 995.9 996.4C1002.9 1002.4 1009.8 1008.6 1016.2 1015.2C1018 1017.1 1020.1 1018.2 1022.6 1019C1032.7 1022 1042.3 1026.3 1051.1 1032C1055.1 1034.6 1059.1 1037.2 1063.1 1039.8C1063.9 1040.3 1064.6 1041.2 1065.7 1040.5C1066.4 1034.1 1067 1027.7 1067.9 1021.4C1068.8 1015.1 1070.6 1008.9 1072.7 1002.7C1071.5 1002.1 1070.5 1001.6 1069.5 1001.2C1064.5 999.3 1059.5 997.5 1054.6 995.6C1044.8 991.8 1034.9 988.2 1025.6 983.5C1018 979.7 1010.5 975.6 1003 971.5C1001.1 970.5 999.5 970.2 997.4 970.7C994.8 971.4 992.2 972 989.6 972.4C981.4 973.8 974 971.9 967.6 966.6C964.8 964.3 962.2 961.7 960.2 958.6C959.6 957.7 958.9 956.9 958.4 956.3C955.5 955.9 953 955.8 950.5 955.3C938.7 952.7 929.7 946.6 925.7 934.6C920.8 932.2 909 928.2 905.9 928C904.3 934.4 902.6 940.8 901.3 947.5C902.4 947.9 903.2 948.3 904.1 948.6C909.6 950.3 915.1 951.8 920.5 953.7C923.7 954.8 926.7 956.3 929.7 957.7C932.3 959 934.3 960.8 934.9 963.9C935 964.4 935.4 964.9 935.8 965.6C936.9 965.6 938 965.6 939.1 965.6C942.6 965.6 946.1 965.4 949.6 965.6C952.2 965.7 954.9 966 957.5 966.8C963.9 968.7 967.9 973 970.1 979.2C971 981.7 971.2 984.1 970.1 986.5C969.8 987.2 969.7 988 969.4 988.8C973.4 988.9 977 989.2 981.4 989.5ZM726 1010C724.3 1012 722.2 1013.7 720.9 1016.2C721.8 1016.6 722.6 1017 723.3 1017.2C726.5 1018.1 729.8 1019 733 1019.7C742.4 1021.9 751.9 1023.4 761.6 1024.2C773 1025.2 784.2 1025 795.5 1022.6C810.7 1019.3 825.4 1014.2 839.7 1008.1C840.5 1007.7 841.3 1007.3 842.4 1006.7C840.9 1005.9 839.9 1005.2 838.8 1004.6C833.1 1001.3 827.4 998 821.7 994.7C818.1 992.6 814.6 990.2 811.5 987.3C807.6 983.7 803.7 980 799.8 976.4C799 975.7 798.1 975 797.3 974.3C797 974.5 796.9 974.6 796.8 974.7C796.2 976 795.7 977.2 795.1 978.5C790.2 989.3 781.9 995.6 770 997C761.9 997.9 753.8 998.5 745.7 997.2C743.8 996.9 742.2 997.3 740.5 998.4C735.4 1001.6 730.6 1005.1 726 1010ZM928.5 1022.3C935.6 1023.9 942.8 1024.9 950.1 1024.9C957.8 1024.9 965.5 1024.2 973.1 1023.2C983 1021.9 992.7 1019.8 1002.2 1017.1C1003 1016.9 1003.6 1016.5 1004.6 1016C1003.8 1015 1003.3 1014.2 1002.6 1013.5C997.7 1007.7 991.9 1002.8 985.5 998.7C983.4 997.3 981.3 996.7 978.8 997.1C970.8 998.4 962.9 997.6 954.9 996.8C953 996.6 951 996.2 949.2 995.6C940 992.9 933.9 986.7 930 978.1C929.4 976.9 929 975.6 928.3 974C927.3 974.8 926.6 975.3 925.9 975.9C922.3 979.2 918.7 982.6 915.2 985.9C911.7 989.2 907.9 992 903.8 994.4C898.5 997.5 893.1 1000.6 887.8 1003.6C886.2 1004.5 884.7 1005.4 882.6 1006.6C897.5 1013.5 912.4 1018.7 928.5 1022.3ZM916 909.1C920.8 907.2 925.6 905.3 930.4 903.4C935.3 901.5 940.3 899.5 945.2 897.6C950 895.7 954.8 893.8 959.6 892C964.5 890.1 969.5 888.2 974.4 886.2C979.1 884.2 984.1 882.8 988.9 880.1C987.9 877.9 986.9 875.9 986.1 873.9C985.2 871.7 984.5 869.5 983.6 867C982.4 867.3 981.3 867.6 980.3 867.9C970 871.6 959.8 875.3 949.6 879C934.4 884.5 919.1 890.1 903.9 895.6C903 895.9 902.2 896.4 901.4 896.9C902 899.7 902.7 902.2 903.2 904.8C903.7 907.5 903.8 910.3 904.2 913.2C908.3 912.5 911.7 910.6 916 909.1ZM763.6 874.6C760.1 873.3 756.5 872 752.9 870.8C749.2 869.5 745.7 867.8 741.7 867.1C739.9 871.5 738.2 875.7 736.4 880C737.6 881.1 739.3 881.6 740.8 882.2C756 888.2 771.3 894.2 786.5 900.2C797.2 904.4 807.8 908.6 818.5 912.8C819.2 913.1 820 913 820.7 913.1C821.7 907.5 822.6 902.2 823.6 896.5C803.9 889.1 784 882 763.6 874.6ZM725.7 1029.9C727.6 1030.4 729.4 1031 731.3 1031.5C739.2 1033.5 747.1 1034.9 755.2 1036C760.9 1036.7 766.7 1036.3 772.4 1037.2C777.9 1036.4 783.6 1036.7 789.1 1035.9C797.7 1034.7 806.1 1032.8 814.5 1030.3C829.8 1025.7 844.5 1019.5 858.7 1012C862.9 1009.8 862.5 1009.7 867.2 1012.1C871.4 1014.3 875.7 1016.4 880 1018.4C896.6 1026 913.6 1032.1 931.7 1035.2C938.8 1036.4 945.9 1036.6 953 1037.2C953.7 1037.3 954.4 1037.2 955.1 1037.2C958.6 1037 962.1 1036.9 965.6 1036.5C968.9 1036.2 972.3 1035.9 975.6 1035.3C980.7 1034.4 985.8 1033.4 990.8 1032.3C997.9 1030.7 1004.8 1028.4 1011.6 1025.8C1012.5 1025.5 1013.2 1024.8 1014 1024.4C1012.5 1021.7 1011.9 1021.4 1009.8 1022C1004.8 1023.6 999.8 1025.5 994.6 1026.9C980.8 1030.6 966.7 1032.7 952.3 1032.4C946.8 1032.3 941.4 1032.2 936 1031.3C927.4 1030 919 1027.9 910.7 1025.2C895.6 1020.3 881 1014.3 866.8 1007.2C865.4 1006.5 864 1005.9 863 1005.4C855.2 1008.9 847.9 1012.3 840.4 1015.5C828.1 1020.9 815.4 1025.3 802.3 1028.6C792.6 1031 782.8 1032.5 772.8 1032.2C767.5 1032.1 762.2 1032.3 756.9 1031.4C751.9 1030.6 746.9 1030.3 742 1029.3C733.5 1027.6 725.1 1025.5 717 1022.2C716.4 1021.9 715.7 1021.7 715 1021.6C713.4 1021.3 712.3 1022.2 711.5 1024.4C715.7 1026.8 720.4 1028.3 725.7 1029.9ZM961.1 921.4C963.7 918.3 966.4 915.2 969 912.2C971.7 909 974.5 905.8 977.2 902.6C979.8 899.6 982.5 896.7 985 893.3C984.4 893.2 984.1 893.1 983.9 893.1C960.3 902.4 936.8 911.6 912.9 921C913.7 921.6 914.3 922 914.9 922.3C917.6 923.5 920.3 924.6 923 925.8C924.9 926.7 926.9 927.4 929 927.3C930 927.3 930.9 927.6 931.9 927.8C936.9 929 941.2 931.5 945.3 934.6C946.1 935.2 947.1 935.8 948 936.4C952.3 931.6 956.5 926.7 961.1 921.4ZM857.2 916.5C856 916.6 854.7 916.6 853.6 916.7C851.9 919.9 852.4 923.2 852.3 926.4C852.2 929.9 852 933.3 853.1 936.8C854.1 940.1 856.2 941.6 859.5 941.8C861.5 941.9 863.4 941.9 865.4 941.8C869.9 941.6 871.6 940.1 872.7 935.8C873.9 931.3 873.6 926.7 873.1 922.1C872.9 920.3 872.5 918.6 872.2 917C871.6 916.8 871.4 916.7 871.1 916.6C866.7 916.5 862.3 916.5 857.2 916.5ZM824.4 974.3C832.7 980.5 835.2 982.1 839 983.2C839.4 982.3 839.8 981.5 840.1 980.6C840.5 979.6 840.7 978.5 841 977.7C838.6 975.6 836.3 973.8 834.2 971.8C832 969.7 830 967.3 828.8 964.4C827.7 961.7 827 958.9 826.1 956.1C825.7 956.1 825.2 956 824.9 956.1C820.5 957.3 816 958.5 811.6 959.8C811.1 959.9 810.5 960.1 810.6 961.1C814.5 965.6 819 969.9 824.4 974.3ZM904 971.8C907.4 968.5 910.8 965.1 914.2 961.8C914.6 961.4 914.8 960.9 915.4 960.2C912.5 959.4 909.9 958.5 907.2 957.8C904.5 957.2 902 955.9 899 956C898.5 962.1 895.9 967.1 891.7 971.3C890.1 972.9 888.4 974.3 886.7 975.7C886 976.3 885.2 976.9 884.4 977.6C885.2 979.6 885.5 981.7 886.9 983.6C892.9 980.3 898.3 976.4 904 971.8ZM955.6 972.4C954.3 971.8 953.1 971.1 951.8 970.7C949.5 969.9 947.2 969.6 944.8 970.2C941.2 971 939.4 973.8 940.3 977.3C940.5 978.1 940.7 978.9 941.2 979.6C944.4 985 949.1 988.1 955.4 988.7C958.2 989 960.7 988.4 962.3 985.8C963.9 983.2 963 980.7 961.6 978.3C960.3 976 958.4 974.2 955.6 972.4ZM837.1 918.7C837 918 836.6 917.4 835.8 917.3C832.8 917.1 829.7 917.1 826.6 917.3C824.6 922 825.7 926.5 826.3 931C826.8 934.6 828.2 937.9 830.5 940.8C834 940.8 837.3 941.3 840.6 940.4C840.8 938.4 840.5 936.7 840.2 934.9C839.1 929.8 838.2 924.6 837.1 918.7ZM886.1 930.5C885.8 933.9 884.2 937.1 884.6 940.8C888.2 941 891.5 941 894.8 940.7C899.4 934.7 901 924.7 898.7 917.3C895.5 917.2 892.2 917 888.6 917.5C888.3 918.9 888 920.2 887.7 921.6C887.2 924.3 886.7 927.1 886.1 930.5ZM764.4 978.2C764.2 979.3 763.9 980.4 763.9 981.5C763.9 984.9 766 987.4 769.3 988C774.7 989 780.6 985.9 782.9 981C785.3 975.8 782.5 970.9 776.7 970.5C775.9 970.4 775 970.6 774.2 970.7C770 971.5 766.7 973.7 764.4 978.2ZM872.7 839.2C868 837.5 863.1 837.4 858.2 837.9C855.7 838.1 853.2 838.5 851 839.9C849.5 840.9 848.6 842.2 847.9 843.7C847.3 845 846.9 846.4 847.7 848.5C848.3 847 848.6 846.1 849 845.2C850.1 842.6 851.1 842.2 854.3 842.8C855.9 845.2 855.8 848.4 857.7 850.7C861.1 850.7 864.5 850.7 867.8 850.7C869.7 848.1 869.4 844.7 871.5 842.5C874.2 842 875.7 843.2 876.5 845.4C876.8 846.3 877.1 847.1 877.3 848C878.8 847.4 878.2 846.6 878 845.8C877.4 843.2 876.1 840.8 872.7 839.2ZM905.6 979.3C903.9 980.5 902.1 981.6 900.4 982.8C891.3 988.8 881.7 994 872.2 999.4C871.5 999.8 871 1000.3 870.3 1000.8C871.8 1002 873.1 1002.3 874.7 1001.4C878.2 999.4 881.8 997.6 885.4 995.7C897.1 989.4 908.3 982.3 918.6 973.9C921.1 971.9 923.5 969.8 926.2 967.4C924.7 966.9 923.7 966.6 922.8 966.3C917.2 970.6 911.7 974.8 905.6 979.3ZM815.1 976C811.5 973.1 807.8 970.3 804.2 967.4C802.7 966.2 801.2 966 799.6 967.4C800.4 968.2 801.1 969 801.9 969.8C808.1 975.3 814.6 980.3 821.5 984.9C830.6 990.9 840.2 996.1 849.9 1001.2C850.5 1001.5 851.2 1001.9 851.8 1002C853 1002.2 853.9 1001.9 854.8 1000.6C853.7 999.9 852.7 999.2 851.7 998.6C847.1 996 842.4 993.4 837.8 990.7C830.1 986.2 822.6 981.7 815.1 976ZM855 898.6C855.1 899.5 855.3 900.4 855.5 901.6C860.4 901.6 865.1 901.9 869.7 901.4C871.3 894 868.8 888.5 862.6 885.6C859 887 856.9 889.8 855.9 893.5C855.4 894.8 855.2 896.4 855 898.6ZM766.9 950.1C774.9 947 783 943.8 791 939.7C789 938 787.3 937.8 785.4 938.8C783.1 940.1 780.8 941.5 778.5 942.7C774.3 945 770 946.9 765.3 947.9C763.6 948.3 762.3 948 761.2 946.7C760.4 945.8 759.5 944.8 758.6 943.9C756.5 942 754.2 942.1 752.3 944C749.7 946.6 750.5 950.4 753.8 951.8C755.7 952.6 757.6 952.7 759.6 952.1C761.7 951.7 764 950.9 766.9 950.1ZM945.5 944.9C946.8 945.4 948.1 946 949.4 946.5C954.6 948.4 959.9 950.3 965.1 952.2C967.7 953.1 970.4 952.8 972.7 951.3C973.4 950.9 974 950.2 974.3 949.5C975.2 947.4 974.4 945.2 972.4 943.6C970.7 942.3 968.9 942.3 967 943.8C966.4 944.2 965.8 944.7 965.5 945.3C963.6 948.7 960.8 948.8 957.6 947.6C956.8 947.3 956 947 955.2 946.7C950.2 944.8 945.5 942.4 941 939.6C938.8 938.2 936.7 937.8 934.3 939.7C937.7 941.8 941.5 942.9 945.5 944.9ZM840.7 954.2C838.3 954.4 835.8 953.7 833.2 954.6C834.2 959.9 837.2 963.7 840.6 967.2C842 968.6 843.5 970.2 846 970.2C846.4 968.8 846.8 967.4 847.1 966.1C848.2 961.5 848.2 961.5 845.7 957.5C845.3 956.9 844.9 956.3 844.6 955.7C843.9 954.4 842.8 954.1 840.7 954.2ZM886.1 965.7C888.5 963.3 890.3 960.5 891.5 957.3C891.8 956.5 891.7 955.5 891.8 954.4C888.2 954 884.9 954.1 881.5 954.5C880.4 956.3 879.3 957.9 878.4 959.6C878 960.3 877.5 961.2 877.6 961.9C877.8 964.8 878.2 967.6 879.8 970.3C882.4 969.6 883.9 967.7 886.1 965.7ZM842.6 897.1C843 895.6 843.5 894.2 843.8 892.7C844 891.8 844 890.7 843.6 889.9C843 888.5 842.4 887.1 840.7 886.2C837.4 887.3 835.6 890.1 833.8 892.9C832.2 895.5 830.8 898.2 831.7 901.9C834.8 902.1 837.9 902.4 841.1 901.9C841.3 901.3 841.6 900.8 841.7 900.2C841.9 899.4 842.2 898.6 842.6 897.1ZM890.4 902.1C890.8 902.1 891.2 902.1 891.7 902.1C894.2 901.8 894.5 901.3 894 898.9C892.9 893.7 889.9 889.8 885.8 886.7C885.4 886.4 884.8 886.4 884.2 886.3C882.7 887.8 881.9 889.5 881.2 891.3C882.3 895 882.9 898.7 884.5 902.2C886.3 902.1 888 902.1 890.4 902.1ZM862 954.2C860.5 954.4 858.9 953.8 857.5 954.9C857.1 960.3 857.2 965.5 862.7 968.7C865 967.5 866.6 965.6 867.2 963.3C867.8 960.7 867.7 957.8 867.9 955.1C867.9 954.9 867.6 954.7 867.2 954.3C865.9 954.2 864.3 954.2 862 954.2ZM1048 858.7C1048.2 857.7 1047.9 857 1046.8 857.1C1046.3 857.1 1045.7 857.5 1045.2 857.7C1032.2 863.1 1019.1 868.5 1006.1 874C1005.6 874.2 1005.3 874.6 1004.9 874.9C1005.8 876.2 1006.7 876.3 1007.9 875.8C1011.9 874.1 1015.8 872.3 1019.9 870.7C1023.5 869.2 1027 867.3 1030.8 866.5C1036.9 865.2 1042.5 862.7 1048 858.7ZM701.7 866.7C693.8 863.5 686 860.2 677.7 856.8C677.7 857.8 677.5 858.6 677.8 859C678.3 859.6 679 860.1 679.8 860.5C683.6 862.7 687.4 864.7 691.7 865.6C697.5 866.9 702.8 869.4 708.2 871.7C711.4 873.1 714.6 874.4 717.8 875.8C719 876.3 720 876.1 720.8 874.8C714.7 871.9 708.4 869.7 701.7 866.7ZM875.7 875C874.8 873.6 873.4 873.7 872 873.7C865.6 873.7 859.2 873.7 852.7 873.7C851.9 873.7 851.1 873.9 850.4 874C848.2 877.5 848.2 877.5 848.6 880.4C850 880.5 851.5 880.9 852.9 880.1C853.1 878.9 851.6 877.7 853.3 876.3C859.2 876.2 865.5 876 871.7 876.4C871.9 876.4 872.1 876.7 872.5 877C872.4 878 872.3 879.2 872.2 880.4C874 880.5 875.6 880.9 877.5 879.9C877 878.4 876.5 877 875.7 875ZM696.9 857.1C699.1 858 701.3 858.9 703.5 859.7C707.3 861.1 711.1 862.5 714.9 864C716.5 864.6 717.7 864.4 719.2 863C708.4 858.7 697.9 854.6 687.2 850.4C686.6 851.1 686.2 851.7 685.6 852.5C689.1 854.6 692.8 855.5 696.9 857.1ZM1029.6 853.7C1025.7 855.3 1021.8 856.7 1017.9 858.4C1014.1 860 1010.1 860.9 1006.5 863.3C1008 864.9 1009.4 864.5 1010.9 863.9C1020 860.4 1029.2 856.9 1038.3 853.4C1038.8 853.2 1039.2 852.8 1039.6 852.4C1037.9 850.8 1037.6 850.6 1036 851.1C1034.1 851.8 1032.1 852.7 1029.6 853.7ZM841.8 907.4C839.7 907.7 837.7 908.1 835.2 908.5C837 909 838.4 909.5 839.9 909.8C843.5 910.6 845.4 912.8 845.7 916.4C845.9 918.2 846.3 920 846.4 921.8C846.6 923.6 846.6 925.4 846.6 927.2C847.3 923 847.8 918.9 848 914.7C848.1 912.6 848.9 911 850.8 910C851.5 909.7 852.1 909.1 853.1 908.4C851.5 907.8 850.4 907.5 849.2 907C847.8 906.5 848.2 904.9 847.4 903.6C846.2 905.4 845.2 907.6 841.8 907.4ZM880.7 912.8C881.7 911 883.4 910.5 885.1 909.9C886.5 909.4 887.9 909.1 889.9 908.5C886.8 908.1 884.4 907.7 881.9 907.3C880.7 907.2 879.8 906.7 879.1 905.7C878.8 905.2 878.6 904.4 877.8 904.5C877.1 905.4 876.5 906.4 875.6 907C874.6 907.7 873.3 907.9 871.8 908.5C872.9 909.1 873.6 909.6 874.3 910C875.9 910.9 876.7 912.1 876.8 914C876.9 916.9 877.3 919.8 877.6 922.7C877.7 923.3 877.4 924.1 878.6 924.4C879.4 920.6 879.1 916.8 880.7 912.8ZM1001.4 879.8C1000.5 876.7 999.7 873.6 998.5 870.7C997.4 868 996 865.4 994.7 862.8C994.4 862.3 993.7 862 993.1 861.5C992.5 863.2 992.7 864.6 993.2 865.9C994.3 869.3 995.3 872.8 996.6 876.2C997.6 878.8 999 881.2 1000.3 883.6C1000.5 884 1001.1 884.1 1001.8 884.5C1001.9 883.6 1002 883.1 1001.9 882.5C1001.9 881.8 1001.7 881.1 1001.4 879.8ZM730.6 871C731.3 868.5 732 865.9 732.7 863.4C732.9 862.8 733 862 732.1 861.7C731.8 861.8 731.5 861.8 731.3 861.9C730.9 862.3 730.6 862.8 730.3 863.2C727.3 868.4 725.5 874.1 723.8 879.9C723.5 880.8 723.5 881.8 723.5 882.8C723.5 883.3 723.3 884 724.4 884.1C724.9 883.3 725.7 882.6 726.2 881.6C727.7 878.3 729 874.9 730.6 871ZM958 936.4C959.6 937.2 960.8 936.7 962 935.3C967 928.6 972.1 922 977.2 915.4C977.4 915.1 977.3 914.7 977.4 914.1C975.8 914.3 975.2 915.5 974.4 916.4C971.3 920 968.2 923.6 965.2 927.2C962.8 930 960.4 932.9 958 936.4ZM869.5 981.9C863.6 981.9 857.7 981.9 851.9 981.9C850.9 981.9 850 982 849 982.1C848.8 982.1 848.5 982.5 848.5 982.7C848.6 983 848.8 983.5 849.1 983.6C849.4 983.8 849.9 983.8 850.3 983.8C858.7 983.8 867.1 983.8 875.5 983.8C876 983.8 876.5 983.5 877.4 983.3C876.8 982.7 876.5 982.1 876.1 982.1C874.3 981.9 872.3 981.9 869.5 981.9ZM866.2 973.4C861.9 973.4 857.6 973.4 853.2 973.4C852.2 973.4 851.2 973.4 850.3 973.6C849.9 973.7 849.6 974.2 848.8 974.8C850.1 975 850.9 975.3 851.7 975.3C858.8 975.3 865.9 975.3 873 975.3C873.6 975.3 874.1 975.3 874.7 975.2C875 975.1 875.3 974.8 875.6 974.5C875.3 974.2 874.9 973.6 874.6 973.6C872.1 973.4 869.6 973.5 866.2 973.4ZM856 860.7C856.2 861 856.4 861.6 856.7 861.6C860.7 862 864.7 862 868.7 861.6C869.1 859.3 868.9 858.6 867.6 858.6C864.3 858.5 860.9 858.5 857.6 858.7C857 858.8 856.6 859.6 856 860.7ZM680.4 850.7C680.5 850.7 680.7 850.8 680.8 850.7C682.6 848.8 682.8 846.1 681.2 844.4C680.6 843.7 679.8 843.6 678.9 844C677.1 844.9 676 846.4 675.4 848.6C677.1 849.3 678.5 849.9 680.4 850.7ZM1043.3 846C1043.3 847.6 1043 849.2 1044 850.9C1046.2 850.1 1048.4 849.9 1049.9 848C1049.2 846.4 1048.2 845.3 1047 844.4C1045.6 843.3 1044.9 843.5 1043.3 846ZM850.7 948C850.3 947 849.9 946.1 849.5 945.1C849.1 946.2 848.8 947.3 848.2 948.1C847.6 948.8 846.5 949.2 845.6 949.7C846.6 950 847.4 950.1 848.1 950.5C848.8 950.9 849.3 951.5 849.6 951.8C851.3 951 852.7 950.3 854 949.6C853.1 949.3 852.1 948.9 850.7 948ZM876.3 946.3C876 946.2 875.7 946 875.4 945.9C875.3 948.1 873.8 948.9 871.9 949.3C871.8 949.3 871.7 949.5 871.4 949.7C872.3 949.9 873.1 950 873.8 950.4C874.5 950.7 875 951.4 875.4 951.7C877 951 878.5 950.3 879.9 949.6C879.2 949.3 878.2 949 877.5 948.5C877.1 948.2 876.9 947.4 876.3 946.3ZM866.2 992.5C866.3 991.8 866 991.4 865.3 991.4C863.6 991.4 861.9 991.3 860.3 991.4C859.9 991.4 859.6 992 859.1 992.4C859.8 992.7 860.2 992.9 860.6 992.9C862.2 992.9 863.9 992.9 866.2 992.5ZM1058.9 844.9C1058.1 844 1057.2 844.2 1056.3 844.7C1055.6 845.1 1054.4 845.2 1054.7 846.8C1056.2 846.9 1057.8 847.2 1058.9 844.9ZM668.3 844.4C667.6 844.3 666.8 844.2 666.7 845.1C666.7 845.5 667.1 846.1 667.5 846.4C668.6 847 669.8 847.2 671.3 846.3C670.4 845.6 669.6 845.1 668.3 844.4ZM984.6 904.9C984.7 904.9 984.9 904.8 985 904.8C984.9 904.7 984.8 904.7 984.6 904.9Z" fill="#FFB55D"/>
<path d="M742.5 679.5L793.5 643.5L797.5 651L811 686L781.5 712.5L762.5 699L742.5 679.5Z" fill="#FF4840"/>
<path d="M721.5 647.5L770 613L791.5 617.5L797.5 633L787.5 652.5L759.5 679.5L723.5 670.5L721.5 647.5Z" fill="#FF4840"/>
<path d="M810 671L830 630L865 607.5L907.5 611L937.5 626.5L947.5 643.5L957.5 658.5L969 640.5L999 607.5H1006.5L952 698.5L947.5 715.5L973 740L969 749.5L960 754.5L941.5 732.5L934 733.5L938 745L949 758.5L946 766.5L938 769.5L928.5 765.5L924.5 751L918 746.5L897.5 762.5L844.5 758.5L818 739.5L811 745L801.5 764L793.5 765L785.5 761V753L799 736.5L797.5 729.5L791.5 728.5L778.5 745L763.5 742L760.5 729.5L777.5 721.5L799 701L810 671Z" fill="#FF4840"/>
<path d="M950.8 753.699C951.1 754.599 951.6 755.399 951.8 756.299C952.3 758.499 952.5 760.799 951.3 762.899C948 768.399 943.4 771.699 936.8 771.999C934.2 772.099 931.8 771.199 929.7 769.799C927.6 768.399 925.8 766.599 924.5 764.399C922.7 761.499 921.9 758.299 922.8 754.899C923.1 753.699 923.5 752.599 922.1 751.499C920.8 751.399 919.8 752.399 918.7 753.099C907.8 760.799 895.5 764.899 882.3 766.199C866.9 767.699 852.1 764.999 838 758.599C831.2 755.499 824.8 751.799 818.7 747.499C818.2 747.099 817.6 746.799 816.9 746.399C815.4 747.199 814.5 748.499 813.6 749.799C813.1 750.499 813 751.499 812.9 752.399C812.5 756.999 810.6 760.799 807.1 763.799C802.6 767.799 796.4 769.299 790.1 765.899C788.1 764.799 786.3 763.499 784.8 761.799C781.9 758.499 781.1 754.799 783.1 750.799C784 748.899 785.2 747.099 786.6 745.499C788.1 743.799 789.7 742.099 791.5 740.899C794.5 738.899 795.5 735.799 797.3 732.799C795.6 731.899 794.2 731.199 792.8 730.499C790.3 732.199 788.4 734.099 787.2 736.799C785.7 740.099 783.6 742.899 780.7 745.199C776.6 748.399 772 748.999 767.1 747.799C766.3 747.599 765.6 747.299 764.8 746.999C760.4 745.599 758.1 742.599 757.3 738.099C756.7 734.699 757 731.499 758.3 728.399C759.9 724.599 762.7 722.199 766.7 721.099C767.3 720.899 768 720.599 768.6 720.699C772.1 720.799 773.9 718.199 776.3 716.099C772.9 713.399 769.8 710.799 766.8 708.299C756.7 699.899 746.5 691.499 736.4 683.099C735.3 682.199 734 681.499 732.7 680.699C730 678.999 727.2 677.399 724.7 675.499C723 674.199 721.6 672.599 720.3 670.999C715.9 665.299 715 658.999 717.4 652.299C718.7 648.599 720.7 645.399 723.1 642.299C726.5 637.999 730.4 634.199 734.6 630.699C742 624.599 749.8 619.099 758.5 614.999C763.2 612.699 768.1 610.999 773.2 610.199C776.8 609.599 780.3 609.599 783.9 610.499C793.5 612.799 800.8 621.699 800.8 631.499C800.8 633.199 801 634.899 801.5 636.599C803.7 645.099 805.8 653.499 808 661.999C808.2 662.699 808.5 663.399 809.1 664.799C809.6 662.599 810 661.199 810.4 659.699C813.1 649.099 817.6 639.199 824.2 630.399C833.9 617.299 846.9 608.999 862.8 605.199C871.6 603.199 880.5 602.499 889.4 603.699C899.5 605.099 909.2 607.899 918.4 612.199C926.5 615.999 934 620.799 940.4 627.099C947.3 633.799 952.3 641.699 955.7 650.599C956.1 651.599 956.5 652.499 957 653.799C957.6 653.099 958.1 652.699 958.5 652.299C966 641.899 973.5 631.399 981.1 620.999C982 619.799 982.6 618.499 982.4 616.999C982.3 616.199 982.4 615.399 982.5 614.599C983.1 611.199 985.3 608.599 988.8 608.399C993.4 608.099 996.2 605.899 997.9 601.899C998.3 601.099 998.8 600.199 999.3 599.499C1000.7 597.499 1002.4 596.899 1004.9 597.599C1005.8 597.899 1006.7 598.199 1007.5 598.699C1010.4 600.299 1011.7 602.899 1010.9 605.999C1010.4 607.999 1009.5 609.999 1008.6 611.899C1008.1 613.099 1007.3 614.199 1006.4 615.199C1005.5 616.299 1005.4 617.499 1005.6 618.899C1005.9 620.599 1006.1 622.299 1005.9 623.999C1005.6 627.499 1003.8 630.299 1000.7 631.999C998.9 632.999 997.6 634.299 996.5 636.099C983.3 657.199 970 678.299 956.7 699.399C955.8 700.899 955.2 702.399 954.9 704.199C954.2 708.699 953.3 713.099 950.2 716.899C950.8 717.599 951.3 718.299 951.9 718.999C952.8 719.899 953.9 720.799 954.8 721.699C957.3 724.399 960.2 726.299 963.6 727.599C966.7 728.699 969.6 730.499 972 732.899C976.3 737.099 977.1 741.699 974.3 746.999C973 749.599 971.2 751.899 968.9 753.799C964.5 757.499 959.9 757.899 954.8 755.199C954.1 754.799 953.5 754.299 952.4 753.599C951.5 752.899 951 752.499 950.4 751.999C950.1 751.699 949.9 751.599 949.6 751.199C949.2 750.499 948.7 750.099 948.3 749.399C948.1 748.999 948 748.799 947.7 748.399C946.3 745.799 945.4 743.299 945.7 740.499C942.9 738.599 940.2 736.699 937.5 734.899C937.4 734.799 937.3 734.899 936.9 734.999C936.5 735.399 936 735.999 935.4 736.599C936.5 738.699 937.4 740.699 938.5 742.699C938.9 743.399 939.4 743.999 940 744.499C942.4 746.199 944.8 747.799 947.3 749.599C947.6 749.899 947.8 749.999 948.1 750.399C948.7 750.999 949.2 751.399 949.6 751.899C949.8 752.299 950 752.499 950.2 752.899C950.3 753.099 950.5 753.399 950.8 753.699ZM814.6 713.799C814.5 713.799 814.5 713.899 813.9 713.999C813.8 714.199 813.6 714.499 813.1 714.699C812.9 714.899 812.7 715.099 812 715.399C809.9 716.999 807.6 718.399 805.7 720.199C803.8 721.899 801.3 723.099 800 725.499C802.9 727.299 803.1 727.299 804.9 725.399C807.5 722.599 810 719.599 812.4 716.699C812.6 716.399 812.7 715.999 813.2 715.399C813.3 715.199 813.4 714.899 813.9 714.599C814.1 714.299 814.3 714.099 814.6 713.799ZM923.8 720.799C923.7 720.799 923.5 720.799 923.4 720.899C923.6 720.999 923.8 720.999 924 721.599C924.2 721.699 924.5 721.899 924.7 722.299C924.9 722.299 925.1 722.299 925.2 722.399C925 722.299 924.9 722.099 924.6 721.599C924.4 721.299 924.1 721.199 923.8 720.799ZM925.2 686.699C925.5 681.499 925.9 676.399 926.2 671.199C926.6 664.099 924.4 657.599 920.6 651.699C917.2 646.299 912.7 641.999 907 639.199C904.4 637.899 901.7 636.799 898.9 635.899C890.1 633.299 881.1 632.599 872 633.399C861.6 634.299 852.8 638.399 845.8 646.199C842.3 650.099 839.7 654.499 837.6 659.299C834.1 667.499 832.7 675.999 832.1 684.799C831.8 689.599 832.6 694.299 833.7 698.899C834.3 701.199 835.3 703.299 837.2 704.999C839.3 706.799 840.5 709.199 840.9 711.899C841.2 713.899 842.3 715.299 844 716.199C846.1 717.299 848.2 718.399 850.5 719.299C861.3 723.199 872.3 725.099 883.8 723.299C887.9 722.699 891.9 721.899 895.7 719.999C895.9 718.899 896 717.899 896.2 716.899C897.1 712.599 899.8 709.899 904.1 708.899C905.4 708.599 906.7 708.499 908 708.399C909 708.299 910.1 708.299 910.9 708.299C912.1 706.899 911.8 705.499 911.9 704.199C912.5 697.099 915.1 694.199 921.6 693.099C922.7 692.899 923.7 692.599 924.5 691.399C924.7 690.299 924.8 688.899 925.2 686.699ZM930.4 696.599C931.8 697.799 933.2 698.999 934.6 700.199C937.7 702.899 940.9 705.499 944 708.199C944.5 708.599 945 709.099 945.9 708.599C949.4 700.099 951.3 690.999 951.8 681.699C952.1 676.699 952 671.699 951.3 666.599C950.4 659.699 948.8 652.999 946.1 646.699C940.6 633.999 931.8 624.199 919.3 617.799C910.5 613.299 901.1 611.199 891.3 610.499C882.4 609.899 873.5 610.499 864.8 612.699C851.9 615.999 841 622.499 832.5 632.799C821.7 645.899 816.6 661.399 814.5 677.999C814.3 679.399 814.7 680.499 815.8 681.599C818.3 684.199 820.7 686.799 823.2 689.399C823.5 689.699 824 689.899 824.6 690.199C824.9 684.999 824.8 680.099 825.4 675.199C826.3 668.199 827.8 661.399 830.5 654.899C832.8 649.499 835.8 644.499 839.9 640.199C845.9 633.799 853.2 629.699 861.5 627.199C868.2 625.199 875 624.599 882 624.599C886.8 624.599 891.6 625.099 896.2 626.399C907.1 629.499 916.5 634.899 923.6 643.899C931 653.199 933.6 663.999 933.2 675.499C933 681.599 932 687.599 930.1 693.399C929.9 694.399 929.4 695.199 930.4 696.599ZM747.5 629.399C746.6 629.999 745.7 630.599 744.9 631.199C738.1 636.199 732.1 641.899 727.4 648.999C725.6 651.699 724.4 654.599 723.6 657.699C722.2 663.299 724.7 667.999 729.9 669.799C732.9 670.799 736.1 671.199 739.3 670.799C746.5 669.799 753.3 667.699 759.8 664.499C766.3 661.299 772.3 657.499 777.8 652.799C782.4 648.899 786.6 644.699 789.8 639.599C791.6 636.699 793 633.599 794 630.199C795.5 624.899 792.5 619.199 786 617.699C781.4 616.699 777 617.199 772.6 618.199C763.6 620.099 755.6 624.099 747.5 629.399ZM911.1 740.599C907.3 735.899 903.7 730.999 899.6 726.299C898.1 726.699 896.9 726.999 895.6 727.399C886.4 730.199 877.1 731.099 867.6 729.699C858.2 728.299 849.3 725.299 841.1 720.399C840.4 719.999 839.7 719.799 838.8 719.399C833.3 726.199 827.7 732.699 822.7 739.599C823 740.199 823.1 740.599 823.4 740.899C823.8 741.399 824.4 741.799 824.9 742.199C833.8 748.899 843.4 754.099 854.1 757.299C860.4 759.199 866.8 760.399 873.3 760.099C878.3 759.899 883.4 759.299 888.3 758.299C892.9 757.299 897.3 755.999 901.5 753.899C905.5 751.999 909.2 749.799 912.3 746.499C912.8 745.899 913.2 745.199 913.6 744.499C913 743.199 912.3 742.099 911.1 740.599ZM774.6 665.199C771.4 667.099 768.3 669.099 765 670.899C761.7 672.599 758.4 674.199 754.9 675.599C751.5 676.899 747.9 677.899 744.3 679.099C744.7 679.599 744.9 679.999 745.2 680.199C754.3 687.999 763.3 695.699 772.4 703.499C774.7 705.499 777 707.499 779.4 709.399C780.5 710.299 781.2 710.199 782.3 709.399C782.7 709.099 783.1 708.699 783.5 708.299C788.4 703.799 793.2 699.299 798.1 694.799C799.5 693.499 800.9 692.299 802.3 691.099C804.2 689.399 805.9 687.599 807.8 685.899C809 684.899 809.1 683.699 808.6 682.299C808.5 682.099 808.4 681.799 808.3 681.599C803.9 670.099 799.6 658.599 795.2 647.099C794.9 646.399 794.5 645.799 794.1 644.799C793.6 645.499 793.2 645.899 793 646.299C790 651.699 786 656.299 781.2 660.099C779.1 661.799 777.1 663.299 774.6 665.199ZM975.7 655.299C980.2 648.299 984.7 641.299 989.2 634.299C989.8 633.399 990.5 632.599 990.2 630.999C988.9 629.699 987.4 628.099 985.2 627.199C984.7 627.799 984.3 628.299 983.9 628.899C977 638.399 970.1 647.999 963.2 657.499C961.6 659.599 960.1 661.799 958.6 663.999C958 664.799 957.8 665.599 957.9 666.599C958.1 670.399 958.2 674.199 958.4 678.099C958.4 678.999 958.1 679.899 958.8 680.699C959 680.699 959.2 680.799 959.2 680.699C964.5 672.299 970 663.999 975.7 655.299ZM791.6 711.499C788.1 714.499 784.6 717.399 781.2 720.999C783.3 722.799 785.1 724.399 786.9 725.899C787.3 725.799 787.6 725.799 787.8 725.699C788.4 725.399 789 724.999 789.5 724.599C796.5 719.199 803.6 713.699 809.7 707.199C811.7 705.099 813.8 702.999 815.8 700.999C816.5 700.299 817.1 699.599 817.7 698.999C818.6 698.099 818.6 697.099 818.3 696.099C818 695.399 817.6 694.699 817.1 694.099C814.6 690.999 813.3 690.899 810.4 693.699C804.3 699.399 798.1 705.199 791.6 711.499ZM824.8 724.599C825.5 723.599 826.2 722.699 826.9 721.699C828.6 719.399 830.4 716.999 832.1 714.699C833 713.399 833 712.699 832.1 711.499C831.7 710.999 831.3 710.499 830.8 709.999C829.1 708.499 828 708.699 826.4 710.399C825.9 710.999 825.4 711.599 824.9 712.299C819.7 719.199 814.1 725.799 808 731.899C806.6 733.299 805.2 734.699 803.9 736.199C803.3 736.799 802.9 737.599 802.4 738.399C804.3 739.999 806 741.299 807.9 742.899C813.9 737.199 819.3 731.299 824.8 724.599ZM934 719.399C936.3 721.599 938.5 723.899 940.8 726.099C943 728.299 945.2 730.599 947.6 732.799C949.2 730.899 950.6 729.199 952 727.499C948.6 722.799 928 702.899 923.7 700.199C921.1 700.899 919.6 702.799 918.7 705.199C923.6 709.899 928.6 714.499 934 719.399ZM928.2 744.899C929.1 744.199 930 743.499 930.9 742.799C930.6 742.199 930.4 741.799 930.2 741.499C923.6 732.999 916.9 724.699 909.6 716.699C909.1 716.099 908.5 715.499 907.9 714.999C906.9 714.099 906.1 714.099 905 714.899C903.1 716.399 902.1 718.099 904.4 720.499C908.4 724.799 912 729.299 915.7 733.899C918.5 737.399 921.1 741.099 923.8 744.699C924.3 745.399 925 745.999 925.7 746.799C926.6 746.199 927.2 745.799 928.2 744.899ZM952.9 737.699C952.6 738.899 952.1 739.999 952.2 741.199C952.6 744.899 954.2 747.799 957.9 749.199C961.4 750.499 964.5 749.899 967.2 747.499C969.9 745.099 970.7 741.999 969.6 738.499C968.1 733.499 962.6 730.999 957.8 732.999C955.6 733.799 954.2 735.199 952.9 737.699ZM778.4 740.499C779 739.599 779.7 738.799 780.1 737.799C782.8 732.099 778.5 725.399 772.2 725.399C768.7 725.399 765.8 726.999 764.2 730.399C762.5 733.899 763.1 737.199 765.5 739.999C767.8 742.699 770.9 743.799 774.5 742.599C775.6 742.199 776.8 741.499 778.4 740.499ZM795.2 762.999C796.8 763.299 798.4 762.899 799.9 762.299C803.1 760.999 805.9 756.999 805.5 753.899C804.8 748.499 801.2 745.299 796.2 745.499C792.6 745.699 790.1 747.199 788.6 750.399C787.1 753.699 787.4 756.799 789.7 759.699C790.9 761.299 792.6 762.399 795.2 762.999ZM932.8 750.799C929.9 752.199 928.4 754.599 927.9 757.599C927 762.899 931.8 767.999 937.6 767.399C943 766.799 946.8 761.299 945.1 756.199C943.4 750.999 938.9 748.799 932.8 750.799ZM996.3 618.599C995 617.299 993.5 616.199 992 615.399C990.4 616.699 990.4 616.699 989.5 618.599C991.2 620.399 993.1 622.099 995.9 623.399C996.3 622.799 996.6 622.299 997 621.699C997.8 620.699 997.5 619.799 996.3 618.599ZM928.9 728.399C929.3 728.899 929.7 729.499 930.2 729.899C930.5 730.199 931.2 730.299 931.6 730.199C932.1 729.999 932.2 729.099 931.6 728.499C930 726.899 928.4 725.299 926.8 723.799C926.6 723.599 926.1 723.699 925.6 723.599C926.1 725.499 927.8 726.499 928.9 728.399ZM1002 611.299C1002.1 610.099 1003.2 608.999 1002.7 607.399C1000.8 607.999 999.7 609.299 998.2 610.599C999 611.299 999.6 611.999 1000.3 612.499C1001 612.999 1001.5 612.399 1002 611.299Z" fill="#FFB55D"/>
<path d="M1387.7 0C1388.1 2 1388.1 3.9 1388.1 5.9C1388.1 317.7 1388.1 629.6 1388.1 941.4C1388.1 958.7 1387.3 975.9 1385.7 993.1C1383.8 1013.2 1380.8 1033 1376.5 1052.7C1366.6 1098.8 1350.7 1142.7 1328.7 1184.4C1308.3 1223.1 1283.3 1258.7 1253.8 1291.1C1226.6 1321 1196.3 1347.4 1163 1370.3C1141.9 1384.8 1119.9 1397.6 1096.9 1408.8C1061 1426.3 1023.5 1439.3 984.6 1448.1C969.4 1451.5 954 1454.3 938.5 1456.2C927.8 1457.5 917 1458.4 906.2 1459.2C898.7 1459.8 891.2 1460 883.7 1460.1C872.3 1460.3 860.9 1460.7 849.5 1460.4C836.4 1460.1 823.4 1459.6 810.4 1458.4C799.2 1457.3 788 1456.1 776.9 1454.4C754.6 1450.9 732.7 1446.1 711 1439.8C680.4 1430.8 650.8 1419.2 622.4 1404.7C606.2 1396.5 590.5 1387.4 575.2 1377.5C550.2 1361.3 526.7 1343 504.9 1322.7C475.6 1295.5 449.7 1265.4 427.4 1232.2C414.4 1212.9 402.6 1192.8 392.4 1171.9C377.1 1140.8 365 1108.6 356.3 1075C352.1 1058.9 348.6 1042.6 346 1026.1C344.3 1015.3 342.9 1004.4 341.9 993.5C341 983.5 340.2 973.5 340 963.4C339.8 955.3 339.4 947.2 339.4 939.1C339.4 628.5 339.4 317.8 339.4 7.2C339.4 5.1 339.4 3 339.4 0.5C688.4 0 1037.8 0 1387.7 0ZM1354.8 155V168.3V174.5C1354.8 174.5 403.9 173.9 376.8 173.9C375.6 173.9 374.4 173.9 373.2 173.9C372.9 173.9 372.6 173.9 372.3 174C372.2 174 372 174.1 371.9 174.1C371.8 174.2 371.7 174.3 371.6 174.4C371.1 177.5 370.9 246 371.2 301C371.2 302.3 371.3 303.6 371.4 305C373.7 305.9 375.8 305.5 377.9 305.5C701.3 305.5 1024.7 305.5 1348.1 305.5C1349.4 305.5 1350.8 305.5 1352.2 305.5C1353.1 305.5 1353.9 305.3 1354.7 305.2C1354.9 304.7 1355 304.4 1355.1 304.1C1355.1 303 1355.2 302 1355.2 300.9C1355.2 259 1355.1 217 1355.1 175.1V174.6V174.4V174.2V173.9L1355.2 158V155V154.4V153.6V152.9V151.6V150.3C1355.2 108.1 1355.1 65.9 1355.1 23.6C1355.1 23.5 1355.1 23.3 1355 23.2C1354.9 23.1 1354.8 23 1354.4 22.6C1352.7 22.2 1350.6 22.4 1348.5 22.4C1025.2 22.4 701.8 22.4 378.5 22.4C377.1 22.4 375.8 22.3 374.4 22.4C373.5 22.5 372.7 22.7 371.6 23C371.6 24.8 371.6 26.5 371.6 28.1C371.6 68.2 371.6 108.3 371.6 148.5C371.6 149.4 371.5 150.3 371.6 151.2C371.7 152 371.9 152.9 372 153.6C376.3 154.3 1354.8 155 1354.8 155ZM724 485.5C724.7 484.7 725.4 483.9 726.1 483.2C756.6 450.2 787.1 417.2 817.6 384.2C832.7 367.9 847.8 351.5 862.9 335.2C863.5 334.6 864.4 334.1 864 332.7C862.3 332.7 860.6 332.7 858.8 332.7C698.5 332.7 538.3 332.7 378 332.7C376.6 332.7 375.3 332.6 373.9 332.7C373.1 332.7 372.2 333 371.1 333.2C371.1 335.3 371.1 337.3 371.1 339.2C371.1 513.1 371.1 687 371.1 860.8C371.1 862.2 371.1 863.5 371.1 864.9C371.1 865.4 371 866.1 372.2 866.4C373.4 865.1 374.7 863.8 376 862.4C391.6 845.5 407.2 828.6 422.8 811.7C459.5 771.9 496.2 732.2 532.9 692.4C557.8 665.5 582.7 638.5 607.5 611.6C646.3 569.6 685 527.8 724 485.5ZM1037.6 332.6C980.6 332.7 923.7 332.7 866.7 332.8C866.6 332.8 866.6 333 866.3 333.4C866.7 333.9 867.1 334.4 867.6 334.9C869.8 337.3 872.1 339.7 874.4 342.2C906.3 376.7 938.3 411.3 970.2 445.8C990.3 467.5 1010.4 489.2 1030.5 511C1062.7 545.9 1095 580.7 1127.3 615.6C1146.8 636.7 1166.3 657.7 1185.8 678.8C1217.6 713.2 1249.5 747.6 1281.3 782.1C1294.7 796.6 1308 811 1321.4 825.5C1331.5 836.4 1341.6 847.3 1351.8 858.2C1352.5 859 1353.1 860.1 1354.8 860.3C1354.8 858.3 1354.9 856.5 1354.9 854.7C1354.9 682.8 1354.9 510.9 1354.9 339C1354.9 337.8 1355 336.6 1354.9 335.4C1354.8 334.6 1354.6 333.7 1354.4 332.6C1249 332.6 1143.8 332.6 1037.6 332.6ZM955.9 1321.4C936.9 1343.3 917.9 1365.2 898.9 1387.1C888 1399.7 877 1412.3 866.1 1424.9C865.5 1425.6 864.3 1426.1 864.9 1427.5C865.5 1427.5 866.1 1427.6 866.7 1427.6C876.8 1427.5 886.8 1427.6 896.9 1426.9C907.5 1426.2 918.2 1425.3 928.8 1424C943.3 1422.3 957.6 1419.8 971.9 1416.8C1006.1 1409.5 1039.1 1398.7 1070.8 1384C1149.6 1347.7 1214.4 1294.2 1264.9 1223.7C1298.8 1176.5 1323.1 1124.7 1338.3 1068.6C1345 1043.8 1349.7 1018.6 1352.3 993C1353.5 981.3 1354.6 969.7 1354.7 958C1354.9 926.9 1354.9 895.8 1354.9 864.7C1354.9 864 1355.2 863.2 1354.1 862.8C1353.3 863.6 1352.5 864.5 1351.8 865.4C1331.8 888.4 1311.8 911.5 1291.8 934.5C1269.1 960.6 1246.5 986.7 1223.8 1012.8C1198.9 1041.5 1174 1070.2 1149 1099C1126.6 1124.8 1104.3 1150.5 1081.9 1176.3C1057 1205 1032.1 1233.7 1007.2 1262.5C990.1 1281.9 973.2 1301.4 955.9 1321.4ZM704.8 1247.2C701.5 1243.5 698.2 1239.8 695 1236C669.9 1207.4 644.8 1178.9 619.7 1150.3C599.2 1126.9 578.6 1103.6 558.1 1080.2C534.7 1053.6 511.3 1026.9 487.8 1000.3C469.2 979.2 450.7 958.1 432.1 937C412.6 914.9 393.2 892.8 373.7 870.7C373.1 870.1 372.8 869.1 371.4 869.1C370.9 870.5 371.1 871.9 371.1 873.4C371.1 891 371.1 908.6 371.1 926.1C371.1 938 371.2 949.8 372 961.7C372.7 972.8 373.7 983.9 375.2 994.9C377.5 1012.3 380.7 1029.6 384.8 1046.7C396.3 1094.6 414.6 1139.9 439.7 1182.3C471.5 1236.2 512.1 1282.6 561.3 1321.3C610 1359.6 663.9 1387.9 723.2 1406C741.7 1411.7 760.5 1416.3 779.6 1419.7C789.2 1421.4 798.8 1423 808.5 1424C814.9 1424.7 821.3 1425.3 827.8 1425.9C838.6 1426.9 849.4 1427.5 860.2 1427.5C861 1427.5 862 1428 862.6 1426.6C810.2 1367 757.7 1307.3 704.8 1247.2ZM540.2 1015.8C547.8 1024.4 555.3 1032.9 562.9 1041.5C567.2 1046.3 571.4 1051.2 575.7 1056.1C583.6 1065.1 591.5 1074.2 599.5 1083.2C604.8 1089.2 610.1 1095.1 615.3 1101.1C623.4 1110.3 631.5 1119.6 639.7 1128.9C644.6 1134.4 649.4 1139.9 654.3 1145.5C662.1 1154.4 669.9 1163.4 677.8 1172.3C683.2 1178.4 688.6 1184.4 693.9 1190.5C701.6 1199.3 709.3 1208.1 717.1 1216.9C722.3 1222.8 727.5 1228.6 732.6 1234.5C740.8 1243.9 749 1253.3 757.3 1262.6C762.3 1268.2 767.3 1273.8 772.2 1279.5C779.8 1288.2 787.4 1296.9 795 1305.6C800.6 1311.9 806.2 1318.2 811.7 1324.5C820.1 1334.1 828.6 1343.7 837 1353.3C839.9 1356.6 842.7 1359.9 845.6 1363.2C850.8 1369.1 855.9 1374.9 861.1 1380.8C861.8 1381.5 862.6 1382.1 863.5 1382.8C864.6 1381.6 865.6 1380.7 866.5 1379.7C871 1374.6 875.4 1369.5 879.8 1364.4C886.9 1356.2 893.9 1348 901 1339.9C907.7 1332.2 914.4 1324.5 921.1 1316.8C928.4 1308.4 935.6 1300 942.9 1291.6C947.4 1286.4 952 1281.2 956.5 1276C963.7 1267.7 970.9 1259.4 978 1251.1C984.6 1243.5 991.2 1235.9 997.8 1228.3C1005 1220 1012.1 1211.7 1019.3 1203.4C1025.9 1195.8 1032.5 1188.2 1039.1 1180.6C1046.4 1172.2 1053.6 1163.8 1060.9 1155.4C1065.4 1150.2 1070 1145 1074.5 1139.7C1081.6 1131.5 1088.7 1123.3 1095.7 1115.2C1102.4 1107.5 1109.1 1099.8 1115.8 1092.1C1122.8 1084 1129.7 1075.9 1136.7 1067.9C1143.5 1060.1 1150.3 1052.3 1157.1 1044.5C1164.5 1036 1171.9 1027.5 1179.2 1019C1183.6 1013.9 1188.1 1008.8 1192.5 1003.7C1199.8 995.3 1207.1 986.9 1214.3 978.5C1219 973.1 1223.8 967.6 1228.5 962.2C1235.2 954.5 1241.8 946.7 1248.5 939C1255.3 931.2 1262.1 923.4 1268.9 915.6C1275.9 907.5 1282.8 899.4 1289.8 891.4C1296.6 883.6 1303.4 875.8 1310.2 868C1311.5 866.5 1312.6 865 1313.8 863.4C1313.2 862.7 1312.8 862.1 1312.3 861.5C1306.5 855.2 1300.7 848.9 1294.9 842.6C1283.7 830.5 1272.5 818.3 1261.2 806.2C1253.7 798.2 1246.3 790.1 1238.8 782.1C1231.2 773.9 1223.7 765.8 1216.1 757.6C1206.4 747.1 1196.6 736.7 1186.9 726.3C1182.9 722 1178.9 717.7 1175 713.4C1166.2 703.9 1157.5 694.4 1148.8 684.9C1142 677.5 1135.1 670.1 1128.3 662.7C1116.7 650.1 1105 637.6 1093.4 625C1086.3 617.4 1079.3 609.8 1072.3 602.2C1060.8 589.7 1049.2 577.3 1037.7 564.8C1030.9 557.4 1024.1 550 1017.2 542.6C1005.8 530.2 994.3 517.9 982.9 505.6C975.7 497.8 968.4 489.9 961.2 482.1C953.5 473.8 945.9 465.6 938.2 457.3C930.7 449.3 923.3 441.2 915.8 433.2C906 422.6 896.1 412.1 886.3 401.5C885.7 400.8 885.1 400.2 884.5 399.5C878.4 392.9 872.3 386.2 866.1 379.7C865.5 379.1 864.7 378.7 863.9 378.2C863 379.1 862.2 379.8 861.5 380.6C858 384.3 854.6 388.1 851.1 391.9C840.3 403.6 829.5 415.3 818.7 427C811.8 434.5 804.8 442 797.9 449.5C786.8 461.5 775.7 473.6 764.6 485.6C757.4 493.4 750.1 501.3 742.9 509.1C731.8 521.1 720.7 533.2 709.6 545.2C702.7 552.7 695.7 560.2 688.8 567.7C677.7 579.7 666.6 591.8 655.5 603.8C648.6 611.3 641.6 618.8 634.7 626.3C623.6 638.3 612.5 650.4 601.4 662.4C594.5 669.9 587.5 677.4 580.6 684.9C569.5 696.9 558.4 709 547.3 721C540.4 728.5 533.4 736 526.5 743.5C515.4 755.5 504.3 767.6 493.2 779.6C486.3 787.1 479.3 794.6 472.4 802.1C461.3 814.1 450.2 826.2 439.1 838.2C433.4 844.4 427.6 850.5 421.9 856.7C418.6 860.2 415.4 863.8 412.1 867.3C411.6 867.8 411.2 868.4 410.8 869C411.1 869.6 411.2 870 411.5 870.3C454.5 918.3 497.1 966.8 540.2 1015.8Z" fill="#FFB55D"/>
<path d="M964.1 903.6C964.2 903.5 964.4 903.5 964.5 903.6C964.4 903.6 964.2 903.7 964.1 903.6Z" fill="#FFB55D"/>
<path d="M1355 22H371V156H1355V22Z" fill="#FF4840"/>
<path d="M1355 174H371V305H1355V174Z" fill="#027EC5"/>
<path d="M441.4 239.5V86.9004H487.5C497.5 86.9004 505.2 90.2004 510.4 96.8004C515.7 103.4 518.3 113 518.3 125.6C518.3 133.3 517.3 139.8 515.4 145C513.4 150.2 510.5 154.2 506.6 157C511.7 160.2 515.4 164.8 517.9 170.7C520.4 176.7 521.7 184.1 521.7 193C521.7 207.9 518.6 219.3 512.4 227.4C506.2 235.5 497.4 239.5 486 239.5H441.4ZM460.7 145.9H483.7C488.7 145.9 492.3 144.6 494.6 141.9C496.9 139.2 498.1 135 498.1 129.3C498.1 123.7 497 119.6 494.7 117.1C492.5 114.6 488.7 113.3 483.6 113.3H460.7V145.9ZM460.7 211.9H484.6C490.2 211.9 494.3 210.3 496.9 207.1C499.5 203.9 500.8 198.9 500.8 192.1C500.8 185 499.5 179.9 497 176.7C494.5 173.6 490.3 172 484.5 172H460.8V211.9H460.7Z" fill="white"/>
<path d="M537.301 239.5V86.9004H575.701C590.701 86.9004 601.901 93.2004 609.301 105.9C616.701 118.5 620.401 137.7 620.401 163.4C620.401 177.4 619.001 189.6 616.301 200.3C613.601 210.9 609.601 219.5 604.401 226C600.501 230.8 596.101 234.3 591.101 236.4C586.101 238.5 579.201 239.6 570.201 239.6H537.301V239.5ZM557.101 211.9H573.301C582.701 211.9 589.401 208.1 593.601 200.5C597.801 192.9 599.901 180.5 599.901 163.4C599.901 146.3 597.901 133.8 594.001 125.8C590.101 117.8 584.001 113.8 575.701 113.8H557.101V211.9Z" fill="white"/>
<path d="M660 86.9004H683.3L718.6 239.5H697.5L690.9 208.1H652.9L646.4 239.5H625.2L660 86.9004ZM671.7 117.4L658.1 182.4H685.3L671.7 117.4Z" fill="white"/>
<path d="M768.101 239.5V86.9004H788.201V239.5H768.101Z" fill="white"/>
<path d="M809.2 239.5V86.9004H830.3L870.1 191.8V86.9004H890V239.5H869.2L829.2 134.6V239.5H809.2Z" fill="white"/>
<path d="M910.2 239.5V86.9004H978.6V113.4H930V148H972.5V174.5H930V239.5H910.2Z" fill="white"/>
<path d="M1055.1 86.9004H1078.4L1113.7 239.5H1092.6L1086 208.1H1048L1041.5 239.5H1020.3L1055.1 86.9004ZM1066.8 117.4L1053.2 182.4H1080.4L1066.8 117.4Z" fill="white"/>
<path d="M1123.8 239.5V86.9004H1153.6L1173 203L1192.2 86.9004H1222.1V239.5H1203.2V116.4L1183.3 239.5H1162.7L1142.6 116.4V239.5H1123.8Z" fill="white"/>
<path d="M1265.5 239.5L1231.7 86.9004H1254L1274.8 201.1L1296 86.9004H1318.1L1284.7 239.5H1265.5Z" fill="white"/>
<path d="M130 1166.3C167.3 1155.5 204.7 1144.6 242 1133.8C246.2 1148.3 250.8 1162.4 255.7 1176.2C258.9 1185.2 259.1 1192.8 256.3 1199.3C253.4 1205.8 247.6 1211 238.8 1214.7C233.3 1217 228.4 1218 224 1217.7C219.6 1217.4 215.7 1215.8 212.2 1212.9C211.8 1218.6 210 1223.5 206.7 1227.6C203.4 1231.7 198.7 1235.2 192.4 1237.8C181.9 1242.2 172.6 1242.6 164.4 1238.6C156.2 1234.6 149.8 1226.6 145.5 1214.6C139.9 1198.8 134.8 1182.7 130 1166.3ZM204.5 1165.5C206.9 1173.1 209.4 1180.5 212 1187.9C213.7 1192.7 215.9 1195.8 218.6 1197.3C221.3 1198.8 224.7 1198.7 228.8 1197.1C232.8 1195.6 235.3 1193.4 236.3 1190.7C237.3 1188 237 1184.2 235.3 1179.4C232.8 1172.3 230.4 1165.2 228.1 1157.9C220.2 1160.4 212.4 1163 204.5 1165.5ZM156.5 1180.9C159.2 1189.3 162 1197.6 164.8 1205.8C166.8 1211.6 169.5 1215.4 172.8 1217.1C176 1218.8 180.1 1218.7 185 1216.9C190.1 1214.9 193.3 1212.3 194.6 1208.9C195.9 1205.6 195.6 1201.1 193.5 1195.3C190.7 1187.5 188.1 1179.6 185.5 1171.5C175.8 1174.7 166.1 1177.8 156.5 1180.9Z" fill="#1D1D1B"/>
<path d="M168 1271.4C203.4 1255.3 238.9 1239.2 274.3 1223.1C280.2 1236.5 286.4 1249.6 293 1262.3C297.4 1270.9 298.5 1278.4 296.1 1285.2C293.7 1292 287.7 1298.3 278 1304C271.9 1307.6 266.1 1309.7 260.8 1310C255.5 1310.3 251 1308.9 247.2 1305.7C247.6 1310.2 246.7 1314.2 244.4 1317.6C242.1 1321 237.6 1324.8 231 1329C227.1 1331.5 223.2 1333.9 219.3 1336.4C219.2 1336.5 219.1 1336.5 218.9 1336.6C212.9 1340.3 210 1343.6 209.9 1346.5C208.9 1347.1 207.9 1347.7 206.8 1348.3C202.9 1341.6 199.2 1334.8 195.5 1328C196.6 1326.5 198.1 1325.1 200 1323.5C201.9 1322 204.3 1320.4 207.2 1318.7C210.7 1316.6 214.3 1314.6 217.8 1312.5C224 1308.8 227.8 1305.4 229 1302.4C230.3 1299.3 229.7 1295.5 227.2 1290.7C224 1284.3 220.8 1277.9 217.7 1271.3C204.1 1278 190.5 1284.6 176.9 1291.3C174 1284.7 171 1278.1 168 1271.4ZM236.1 1262.3C239.4 1269.3 242.8 1276.3 246.4 1283.1C248.7 1287.6 251.5 1290.2 254.8 1291.1C258.1 1292 262 1291.1 266.7 1288.5C271.1 1286 274 1283.2 275.2 1280C276.5 1276.8 276.1 1273.3 274.1 1269.4C270.6 1262.6 267.2 1255.7 263.9 1248.7C254.7 1253.3 245.4 1257.8 236.1 1262.3Z" fill="#1D1D1B"/>
<path d="M218.301 1367.3C251.201 1346.4 284.101 1325.5 317.001 1304.5C320.101 1309.6 323.301 1314.5 326.501 1319.5C294.201 1341.3 261.801 1363.1 229.501 1384.9C225.701 1379.1 222.001 1373.3 218.301 1367.3Z" fill="#1D1D1B"/>
<path d="M298.101 1453.3C291.301 1454.5 285.401 1454.1 280.301 1452.3C275.201 1450.5 270.701 1447.1 266.801 1442.2C258.201 1431.3 255.901 1418.7 260.101 1405C264.301 1391.3 274.101 1379.3 289.201 1368.5C304.401 1357.7 318.801 1352.3 332.101 1351.7C345.501 1351.1 355.601 1355.4 363.101 1364.9C369.601 1373.1 372.401 1381.8 371.401 1391.5C370.501 1401.2 366.001 1410.7 357.801 1419.9C353.701 1415.3 349.701 1410.7 345.701 1406C349.601 1401.2 351.701 1396.4 351.901 1391.8C352.201 1387.1 350.601 1382.7 347.301 1378.5C342.801 1372.9 336.601 1370.6 328.301 1371.6C320.101 1372.6 310.901 1376.9 300.801 1384.5C290.701 1392.2 284.101 1400.1 281.201 1408.3C278.401 1416.5 279.601 1424 284.801 1430.6C288.701 1435.5 293.801 1438.1 299.901 1438.4C306.001 1438.7 312.301 1436.6 318.901 1432.2C314.401 1426.9 309.901 1421.5 305.501 1416C310.701 1411.8 315.801 1407.5 321.001 1403.3C328.801 1413.1 336.901 1422.5 345.101 1431.7C329.501 1445.9 313.801 1460.1 298.201 1474.4C295.201 1471.1 292.201 1467.7 289.301 1464.3C292.201 1460.6 295.101 1457 298.101 1453.3Z" fill="#1D1D1B"/>
<path d="M412.9 1424.8C417.5 1429.3 422.2 1433.8 427 1438.2C407.8 1473.6 390 1510 373.6 1547.3C368.3 1542.9 363.1 1538.4 358 1533.8C361.7 1526.3 365.5 1518.9 369.3 1511.5C360.4 1503.5 351.7 1495.2 343.1 1486.6C336 1490.9 328.8 1495.1 321.6 1499.2C316.7 1494.2 311.9 1489.2 307.1 1484C343.4 1465.8 378.7 1446 412.9 1424.8ZM403.8 1448.7C389.5 1458.1 375.1 1467.3 360.5 1476.2C366.5 1482.1 372.6 1487.9 378.8 1493.5C386.8 1478.4 395.2 1463.5 403.8 1448.7Z" fill="#1D1D1B"/>
<path d="M384.199 1556.1C408.799 1525.7 433.399 1495.3 457.999 1465C466.199 1471.6 474.599 1478 482.999 1484.2C492.999 1491.4 497.699 1500.5 497.499 1512C497.199 1523.4 491.899 1537.5 481.099 1554C475.199 1563 469.099 1570.2 462.499 1575.7C455.899 1581.2 449.099 1584.6 442.299 1586C437.099 1587 432.099 1586.8 427.299 1585.4C422.499 1584 416.499 1580.8 409.499 1575.7C400.899 1569.2 392.499 1562.7 384.199 1556.1ZM412.099 1551.1C416.099 1554.2 420.199 1557.2 424.299 1560.2C431.399 1565.4 438.299 1566.6 444.899 1564C451.499 1561.4 458.399 1554.6 465.899 1543.8C473.299 1533 477.399 1524.1 478.199 1517.2C478.999 1510.3 476.599 1504.8 470.899 1500.7C466.699 1497.6 462.399 1494.5 458.299 1491.3C442.799 1511.2 427.499 1531.2 412.099 1551.1Z" fill="#1D1D1B"/>
<path d="M544.3 1523.5C549.8 1526.6 555.3 1529.6 560.9 1532.5C550.8 1571.3 542.3 1610.7 535.4 1650.6C529.3 1647.7 523.3 1644.8 517.3 1641.8C519.1 1633.7 521 1625.7 522.9 1617.6C512.5 1612.3 502.2 1606.7 492.1 1600.8C486.3 1606.7 480.5 1612.6 474.5 1618.5C468.7 1615.1 462.9 1611.6 457.1 1608C487.5 1580.9 516.6 1552.7 544.3 1523.5ZM541.2 1548.6C529.8 1561.3 518.1 1573.8 506.2 1586.2C513.3 1590.2 520.5 1594.1 527.7 1597.9C532 1581.4 536.5 1564.9 541.2 1548.6Z" fill="#1D1D1B"/>
<path d="M585.1 1671.9C599.6 1635.7 614.2 1599.5 628.7 1563.4C645.8 1570 663.2 1576 680.8 1581.2C678.8 1587.7 676.8 1594.1 674.8 1600.6C662 1596.8 649.2 1592.6 636.6 1588.1C633.5 1596.4 630.4 1604.7 627.3 1612.9C638.8 1617 650.4 1620.9 662 1624.4C660 1630.9 657.9 1637.3 655.9 1643.8C643.9 1640.2 632 1636.2 620.2 1631.9C614.4 1647.4 608.6 1663 602.8 1678.5C596.9 1676.4 591 1674.2 585.1 1671.9Z" fill="#1D1D1B"/>
<path d="M674.4 1640.2C679.7 1622.1 687.4 1608.7 697.2 1599.8C707 1590.9 717.3 1587.8 728.7 1590.3C740.1 1592.8 748.1 1599.9 753.1 1612.1C758.1 1624.2 759.3 1639.5 756.2 1658.1C753.1 1676.6 746.8 1690.8 736.9 1700.3C727 1709.8 714.9 1713.2 701.4 1710.2C687.8 1707.2 678.4 1699.1 673.6 1686.4C668.7 1673.7 669.2 1658.3 674.4 1640.2ZM691.8 1644.8C688.5 1657.2 688 1667.4 690.5 1675.3C693 1683.2 698.2 1688.1 705.9 1689.8C713.7 1691.5 720.6 1689.3 726.4 1683.1C732.1 1677 736.1 1667.6 738.6 1655C741 1642.4 740.9 1632.2 738.3 1624.5C735.7 1616.8 731 1612.2 724 1610.7C717.1 1609.2 710.9 1611.4 705.2 1617.3C699.6 1623.2 695.1 1632.3 691.8 1644.8Z" fill="#1D1D1B"/>
<path d="M765.2 1718.3C770.7 1679.8 776.2 1641.3 781.7 1602.8C794.3 1604.5 806.9 1605.9 819.6 1606.9C828.1 1607.6 834.3 1610.7 838.1 1616.3C842 1621.9 843.7 1630.3 843.2 1641.5C842.9 1648.6 841.5 1654.5 839.1 1659.1C836.7 1663.7 833.4 1666.8 829.2 1668.3C832.8 1670.3 835.3 1673.2 836.7 1677C838.1 1680.8 838.7 1686.6 838.6 1694.4C838.5 1699 838.4 1703.6 838.3 1708.2C838.3 1708.3 838.3 1708.5 838.3 1708.7C838.1 1715.7 839.1 1719.9 841.2 1721.5C841.1 1722.7 841.1 1723.9 841 1725.1C834.1 1724.8 827.1 1724.4 820.2 1724C819.6 1722.3 819.3 1720.3 819.1 1717.9C818.9 1715.5 818.9 1712.6 819.1 1709.3C819.3 1705.2 819.5 1701.1 819.8 1697C820.1 1689.8 819.5 1684.8 817.8 1682.2C816.2 1679.5 813 1678 808.2 1677.6C801.9 1677 795.6 1676.4 789.3 1675.7C787.5 1690.7 785.8 1705.7 784 1720.8C777.8 1719.9 771.5 1719.1 765.2 1718.3ZM791.8 1655.4C798.6 1656.2 805.4 1656.8 812.2 1657.4C816.6 1657.8 820 1656.8 822.2 1654.5C824.5 1652.2 825.8 1648.3 826.1 1643C826.5 1637.9 825.7 1634 824 1631.3C822.2 1628.6 819.5 1627 815.6 1626.7C808.8 1626.1 802.1 1625.5 795.4 1624.7C794.2 1635 793 1645.2 791.8 1655.4Z" fill="#1D1D1B"/>
<path d="M860.6 1725.6C861.3 1686.7 862.1 1647.9 862.8 1609C868.4 1609.1 874.1 1609.1 879.7 1609.1C890.5 1635.7 902.6 1662.1 916 1688.2C914.5 1661.5 913 1634.9 911.6 1608.2C916.9 1607.9 922.2 1607.6 927.5 1607.2C930.6 1646 933.7 1684.7 936.8 1723.5C930.3 1724 923.7 1724.4 917.2 1724.7C903.2 1698.7 890.4 1672.3 879 1645.6C879.1 1672.3 879.3 1699 879.4 1725.7C873.1 1725.8 866.8 1725.7 860.6 1725.6Z" fill="#1D1D1B"/>
<path d="M949.5 1663.9C947.6 1645.1 949.7 1629.9 955.4 1618.1C961.1 1606.3 969.5 1599.7 981 1597.9C992.5 1596.1 1002.6 1599.8 1011.9 1609.3C1021.1 1618.8 1028 1632.6 1032.1 1650.9C1036.2 1669.2 1035.7 1684.7 1030.1 1697.1C1024.5 1709.5 1014.6 1717 1000.8 1719.2C987.1 1721.3 975.3 1717.2 966 1707.1C956.8 1697.1 951.5 1682.5 949.5 1663.9ZM967.4 1661.9C969 1674.6 972.4 1684.3 977.7 1690.7C983 1697.2 989.7 1699.8 997.5 1698.6C1005.4 1697.4 1011 1692.8 1014 1685C1017 1677.2 1017.2 1667 1014.7 1654.5C1012.2 1641.9 1008.2 1632.5 1002.9 1626.3C997.6 1620 991.5 1617.5 984.4 1618.6C977.4 1619.7 972.5 1623.9 969.5 1631.5C966.5 1638.9 965.7 1649.1 967.4 1661.9Z" fill="#1D1D1B"/>
<path d="M1084.4 1698.3C1063.6 1663.6 1044.3 1628.2 1026.6 1592.3C1032.4 1591 1038.3 1589.6 1044.1 1588.1C1057 1614.9 1070.5 1641.4 1084.8 1667.7C1082.8 1638 1080.1 1608.4 1076.7 1579C1082.4 1577.3 1088 1575.4 1093.6 1573.6C1098 1613.2 1100.8 1653.2 1102.1 1693.4C1096.2 1695.1 1090.3 1696.7 1084.4 1698.3Z" fill="#1D1D1B"/>
<path d="M1120.5 1626.2C1114.1 1608.4 1112.5 1593.1 1115.2 1580.3C1117.9 1567.5 1124.5 1559.1 1135.3 1554.6C1146.1 1550.1 1156.9 1551.3 1168.2 1558.3C1179.5 1565.3 1189.6 1577 1198 1593.9C1206.5 1610.7 1209.7 1625.9 1207.2 1639.4C1204.7 1652.8 1196.8 1662.5 1184 1667.9C1171.1 1673.3 1158.6 1672.1 1147.1 1664.4C1135.7 1656.7 1127 1643.9 1120.5 1626.2ZM1137.5 1620C1142.2 1632 1147.8 1640.5 1154.6 1645.6C1161.3 1650.6 1168.5 1651.6 1175.9 1648.6C1183.3 1645.5 1187.7 1639.7 1188.7 1631.4C1189.8 1623.1 1187.5 1613.2 1182 1601.5C1176.5 1589.9 1170.3 1581.7 1163.7 1576.9C1157 1572.1 1150.4 1571.1 1143.8 1573.8C1137.2 1576.5 1133.5 1581.8 1132.3 1589.9C1131.1 1597.9 1132.8 1608 1137.5 1620Z" fill="#1D1D1B"/>
<path d="M1277.1 1617.7C1257 1584.2 1236.8 1550.8 1216.7 1517.3C1225.7 1512 1234.5 1506.5 1243.2 1500.8C1253.4 1494.1 1263.7 1492.7 1274.4 1497C1285.1 1501.2 1296.5 1511.1 1308.4 1526.8C1314.8 1535.4 1319.5 1543.7 1322.4 1551.7C1325.2 1559.8 1326.1 1567.3 1325 1574.2C1324.2 1579.4 1322.2 1584 1319.2 1588C1316.2 1592 1311.1 1596.5 1303.9 1601.1C1295 1606.8 1286.1 1612.3 1277.1 1617.7ZM1281.9 1590C1286.2 1587.3 1290.4 1584.6 1294.6 1581.9C1301.9 1577.1 1305.5 1571.1 1305.3 1564.1C1305.1 1557.1 1301.2 1548.2 1293.5 1537.5C1285.9 1526.8 1278.9 1520 1272.6 1516.8C1266.3 1513.7 1260.4 1514 1254.5 1517.9C1250.1 1520.8 1245.7 1523.6 1241.3 1526.3C1254.9 1547.6 1268.4 1568.8 1281.9 1590Z" fill="#1D1D1B"/>
<path d="M1359.4 1561.4C1335.1 1530.8 1310.9 1500.1 1286.6 1469.5C1290.9 1466.1 1295.2 1462.6 1299.5 1459C1324.5 1489 1349.6 1519 1374.6 1549.1C1369.6 1553.2 1364.5 1557.3 1359.4 1561.4Z" fill="#1D1D1B"/>
<path d="M1437.7 1490C1414.5 1467.8 1391.4 1445.5 1368.2 1423.3C1362.4 1429.4 1356.5 1435.4 1350.5 1441.2C1345.6 1436.2 1340.8 1431.2 1335.9 1426.2C1351.5 1411 1366.4 1394.9 1380.6 1377.9C1385.9 1382.4 1391.2 1386.9 1396.6 1391.4C1391.2 1397.9 1385.7 1404.3 1380.1 1410.5C1403.8 1432.1 1427.5 1453.8 1451.2 1475.4C1446.8 1480.3 1442.2 1485.2 1437.7 1490Z" fill="#1D1D1B"/>
<path d="M1402.1 1350.5C1406.1 1345.1 1410 1339.7 1413.9 1334.1C1451.5 1348.4 1490 1360.9 1529.2 1371.7C1525.3 1377.9 1521.4 1384 1517.4 1390.1C1509.5 1387.5 1501.7 1384.8 1493.8 1382C1486.7 1392.4 1479.4 1402.6 1471.9 1412.5C1477 1419.1 1482 1425.8 1487 1432.4C1482.6 1438.1 1478.2 1443.6 1473.7 1449.1C1451.1 1415.1 1427.2 1382.2 1402.1 1350.5ZM1426.9 1356.3C1437.9 1369.4 1448.7 1382.8 1459.3 1396.4C1464.5 1389.4 1469.6 1382.4 1474.6 1375.1C1458.6 1369.1 1442.7 1362.8 1426.9 1356.3Z" fill="#1D1D1B"/>
<path d="M1536.9 1359.2C1503.7 1338.7 1470.6 1318.2 1437.4 1297.7C1444.6 1285.7 1451.5 1273.3 1458.1 1260.5C1462.5 1251.9 1468.1 1246.6 1475 1244.7C1481.9 1242.8 1490.5 1244.2 1500.6 1249C1507 1252.1 1511.9 1255.7 1515.1 1260.1C1518.3 1264.4 1519.7 1269.1 1519.2 1274.1C1522.7 1271.1 1526.4 1269.6 1530.5 1269.5C1534.6 1269.5 1540.2 1271 1547.4 1274.2C1551.6 1276.1 1555.8 1277.9 1560 1279.8C1560.1 1279.8 1560.2 1279.9 1560.4 1280C1566.7 1282.9 1571.1 1283.5 1573.5 1281.8C1574.6 1282.3 1575.6 1282.8 1576.7 1283.3C1573.4 1290.5 1570 1297.7 1566.5 1304.7C1564.7 1304.6 1562.6 1304.2 1560.3 1303.5C1558 1302.8 1555.3 1301.7 1552.3 1300.2C1548.6 1298.4 1544.9 1296.6 1541.3 1294.8C1534.8 1291.7 1529.9 1290.5 1526.7 1291.1C1523.5 1291.8 1520.7 1294.5 1518.2 1299.3C1514.9 1305.6 1511.5 1311.8 1508.1 1318C1521.2 1325.6 1534.3 1333.2 1547.4 1340.9C1544 1347.1 1540.5 1353.2 1536.9 1359.2ZM1490.6 1307.8C1494.3 1301.2 1498 1294.5 1501.5 1287.6C1503.8 1283.2 1504.4 1279.3 1503.2 1276C1502 1272.8 1499.1 1269.9 1494.3 1267.5C1489.8 1265.2 1485.9 1264.4 1482.6 1265.2C1479.3 1266 1476.7 1268.3 1474.7 1272.1C1471.2 1278.9 1467.6 1285.6 1463.9 1292.1C1472.8 1297.5 1481.7 1302.6 1490.6 1307.8Z" fill="#1D1D1B"/>
<path d="M1530.8 1243.4C1513.6 1235.7 1501.7 1225.7 1494.6 1213.7C1487.6 1201.8 1486.4 1189.7 1491.1 1176.7C1495.8 1163.7 1504.4 1154.9 1517.6 1149.9C1530.7 1145 1546.3 1144.8 1564.3 1150C1582.3 1155.2 1595.4 1163.9 1603.1 1176.5C1610.8 1189.1 1612 1203.6 1606.4 1219.1C1600.8 1234.6 1590.9 1244.6 1577.1 1248.8C1563.4 1253.1 1548 1251 1530.8 1243.4ZM1538.9 1224.1C1550.8 1229 1560.9 1230.5 1569.4 1228.4C1577.8 1226.3 1583.8 1220.8 1587 1211.9C1590.2 1202.9 1589.3 1194.7 1584.2 1187.4C1579.1 1180.1 1570.4 1174.6 1558.2 1170.7C1546 1166.8 1535.8 1166.1 1527.5 1168.4C1519.2 1170.8 1513.8 1175.9 1510.9 1183.9C1508.1 1191.8 1509 1199.1 1513.9 1206.1C1518.6 1213.1 1527 1219.2 1538.9 1224.1Z" fill="#1D1D1B"/>
</svg>
